<svg width="210" height="248" viewBox="0 0 210 248" fill="none" xmlns="http://www.w3.org/2000/svg">
<g id="Frame 20150">
<g id="Group 5">
<g id="Vector" style="mix-blend-mode:multiply" opacity="0.05">
<path d="M195.128 240.616C194.692 245.226 175.48 247.629 103.546 247.629C37.0043 247.323 14.2997 246.209 14.4744 240.594C15.2603 216.237 63.0927 184.496 103.262 184.496C143.432 184.496 196.657 225.237 195.128 240.616Z" fill="#F9F9F9"/>
</g>
<g id="Vector_2" style="mix-blend-mode:multiply" opacity="0.1">
<path d="M194.407 240.42C193.993 244.985 175.152 247.235 103.676 247.235C37.5277 246.951 14.8886 245.925 15.0633 240.354C15.8055 216.761 63.4414 186.156 103.371 186.156C143.3 186.156 195.892 225.412 194.407 240.42Z" fill="#F2F2F2"/>
</g>
<g id="Vector_3" style="mix-blend-mode:multiply" opacity="0.14">
<path d="M193.709 240.266C193.294 244.788 174.868 246.82 103.829 246.82C38.0735 246.536 15.4999 245.618 15.6746 240.07C16.3514 217.329 63.7908 187.838 103.48 187.838C143.169 187.838 195.041 225.564 193.709 240.266Z" fill="#ECECEC"/>
</g>
<g id="Vector_4" style="mix-blend-mode:multiply" opacity="0.19">
<path d="M192.967 239.983C192.574 244.483 174.563 246.537 103.96 246.537C38.5975 246.253 16.0676 245.466 16.2204 239.983C16.8971 217.985 64.1182 189.564 103.546 189.564C142.973 189.564 194.233 225.74 192.967 239.983Z" fill="#E6E6E6"/>
</g>
<g id="Vector_5" style="mix-blend-mode:multiply" opacity="0.24">
<path d="M192.247 239.764C191.876 244.133 174.258 246.099 104.092 246.099C39.1222 245.815 16.6578 245.138 16.767 239.545C17.3564 218.377 64.4247 191.027 103.634 191.027C142.843 191.027 193.426 225.914 192.247 239.764Z" fill="#DFDFDF"/>
</g>
<g id="Vector_6" style="mix-blend-mode:multiply" opacity="0.29">
<path d="M191.526 239.567C191.177 243.936 174.061 245.728 104.201 245.728C39.6238 245.444 17.2249 244.876 17.3777 239.414C17.9235 219.055 64.7953 192.797 103.764 192.797C142.733 192.797 192.618 226.089 191.526 239.567Z" fill="#D9D9D9"/>
</g>
<g id="Vector_7" style="mix-blend-mode:multiply" opacity="0.33">
<path d="M190.806 239.348C190.478 243.718 173.668 245.334 104.354 245.334C40.1915 245.05 17.8362 244.613 17.9891 239.174C18.4912 219.513 65.1665 194.479 103.895 194.479C142.624 194.479 191.81 226.263 190.806 239.348Z" fill="#D3D3D3"/>
</g>
<g id="Vector_8" style="mix-blend-mode:multiply" opacity="0.38">
<path d="M190.085 239.13C189.758 243.499 173.362 244.963 104.485 244.963C40.7155 244.679 18.4257 244.351 18.5567 238.933C19.0152 220.19 65.494 196.139 103.983 196.139C142.471 196.139 191.002 226.416 190.085 239.13Z" fill="#CCCCCC"/>
</g>
<g id="Vector_9" style="mix-blend-mode:multiply" opacity="0.43">
<path d="M189.343 238.935C189.037 243.304 173.057 244.593 104.594 244.593C41.2831 244.309 18.9934 244.091 19.1244 238.695C19.5391 220.782 65.8215 197.801 104.07 197.801C142.318 197.801 190.216 226.593 189.343 238.935Z" fill="#C6C6C6"/>
</g>
<g id="Vector_10" style="mix-blend-mode:multiply" opacity="0.48">
<path d="M188.644 238.717C188.361 242.976 172.773 244.2 104.747 244.2C41.7853 243.938 19.6047 243.828 19.7357 238.455C20.1068 221.35 66.1927 199.461 104.201 199.461C142.209 199.461 189.343 226.767 188.644 238.717Z" fill="#C0C0C0"/>
</g>
<g id="Vector_11" style="mix-blend-mode:multiply" opacity="0.52">
<path d="M187.925 238.497C187.663 242.713 172.469 243.827 104.966 243.827C42.3977 243.543 20.2826 243.565 20.3918 238.213C20.7411 221.916 66.6304 201.076 104.399 201.076C142.167 201.076 188.602 226.941 187.925 238.497Z" fill="#B9B9B9"/>
</g>
<g id="Vector_12" style="mix-blend-mode:multiply" opacity="0.57">
<path d="M187.161 238.28C186.92 242.452 172.141 243.435 104.966 243.435C42.7902 243.173 20.7406 243.304 20.8498 237.974C21.1554 222.507 66.8265 202.781 104.354 202.781C141.882 202.781 187.816 227.16 187.161 238.28Z" fill="#B3B3B3"/>
</g>
<g id="Vector_13" style="mix-blend-mode:multiply" opacity="0.62">
<path d="M186.484 238.083C186.265 242.211 171.878 243.063 105.14 243.063C43.3794 242.801 21.3734 243.063 21.4826 237.733C21.7446 223.075 67.3283 204.463 104.442 204.463C141.555 204.463 187.007 227.269 186.484 238.083Z" fill="#ADADAD"/>
</g>
<g id="Vector_14" style="mix-blend-mode:multiply" opacity="0.67">
<path d="M185.741 237.864C185.566 241.949 171.572 242.692 105.27 242.692C43.9026 242.408 21.984 242.692 22.0713 237.493C22.2896 223.643 67.5677 206.123 104.615 206.123C141.663 206.123 186.221 227.444 185.741 237.864Z" fill="#A6A6A6"/>
</g>
<g id="Vector_15" style="mix-blend-mode:multiply" opacity="0.71">
<path d="M184.977 237.646C184.824 241.709 171.245 242.299 105.358 242.299C44.3832 242.036 22.5301 242.517 22.5956 237.252C22.7921 224.145 67.8737 207.783 104.659 207.783C141.445 207.783 185.435 227.619 184.977 237.646Z" fill="#A0A0A0"/>
</g>
<g id="Vector_16" style="mix-blend-mode:multiply" opacity="0.76">
<path d="M184.3 237.427C184.169 241.447 170.983 241.927 105.532 241.927C44.9724 241.665 23.1629 242.255 23.2284 237.034C23.3812 224.801 68.2446 209.443 104.812 209.443C141.379 209.443 184.627 227.793 184.3 237.427Z" fill="#9A9A9A"/>
</g>
<g id="Vector_17" style="mix-blend-mode:multiply" opacity="0.81">
<path d="M183.579 237.231C183.579 241.207 170.676 241.6 105.685 241.6C45.4958 241.338 23.7518 242.059 23.8173 236.86C23.9483 225.435 68.5933 211.17 104.921 211.17C141.248 211.17 183.841 227.969 183.579 237.231Z" fill="#939393"/>
</g>
<g id="Vector_18" style="mix-blend-mode:multiply" opacity="0.86">
<path d="M182.794 237.012C182.794 240.944 170.328 241.163 105.751 241.163C45.9549 240.9 24.2765 241.731 24.3201 236.553C24.4293 225.937 68.8778 212.764 104.965 212.764C141.052 212.764 183.055 228.143 182.794 237.012Z" fill="#8D8D8D"/>
</g>
<g id="Vector_19" style="mix-blend-mode:multiply" opacity="0.9">
<path d="M182.138 236.793C182.138 240.703 170.087 240.79 105.947 240.79C46.5655 240.528 24.9526 241.468 24.9744 236.421C24.9744 226.635 69.2919 214.576 105.117 214.576C140.942 214.576 182.269 228.295 182.138 236.793Z" fill="#878787"/>
</g>
<g id="Vector_20" style="mix-blend-mode:multiply" opacity="0.95">
<path d="M181.417 236.597C181.417 240.442 169.803 240.398 106.077 240.398C47.1326 240.136 25.5414 241.206 25.5632 236.029C25.5632 227.051 69.6188 216.062 105.226 216.062C140.832 216.062 181.504 228.471 181.417 236.597Z" fill="#808080"/>
</g>
<g id="Vector_21" style="mix-blend-mode:multiply">
<path d="M180.61 236.378C180.61 240.201 169.41 240.026 106.122 240.026C47.5263 239.764 26.0443 240.943 26.0662 235.832C26.0662 227.661 69.8816 217.766 105.248 217.766C140.615 217.766 180.61 228.645 180.61 236.378Z" fill="#7A7A7A"/>
</g>
<path id="Vector_22" d="M177.62 239.829H28.1843L35.4541 197.559H170.35L177.62 239.829Z" fill="url(#paint0_linear_646_21550)"/>
<path id="Vector_23" d="M156.443 185.129H47.8107L32.1794 195.571L35.4541 197.559H170.35L173.624 195.571L156.443 185.129Z" fill="url(#paint1_linear_646_21550)"/>
<path id="Vector_24" d="M32.1793 195.572L35.454 197.56L28.1842 239.831L23.5996 237.843L32.1793 195.572Z" fill="url(#paint2_linear_646_21550)"/>
<path id="Vector_25" d="M173.624 195.572L170.35 197.56L177.619 239.831L182.182 237.843L173.624 195.572Z" fill="url(#paint3_linear_646_21550)"/>
<g id="Group" style="mix-blend-mode:overlay">
<path id="Vector_26" opacity="0.06" d="M98.875 197.276C96.6919 197.516 109.485 198.696 128.522 198.674C150.899 198.674 165.111 198.259 164.806 197.669C164.696 197.494 143.978 196.489 130.006 196.467C116.034 196.445 100.491 197.101 98.875 197.276Z" fill="white"/>
<path id="Vector_27" opacity="0.13" d="M99.9873 197.277C97.8042 197.517 110.139 198.631 128.368 198.609C149.741 198.609 163.429 198.216 163.123 197.67C163.123 197.473 143.148 196.534 129.809 196.512C116.47 196.49 101.581 197.102 99.9873 197.277Z" fill="white"/>
<path id="Vector_28" opacity="0.19" d="M101.123 197.276C99.0924 197.516 110.816 198.565 128.237 198.565C148.649 198.565 161.77 198.193 161.508 197.647C161.508 197.451 142.362 196.599 129.656 196.577C116.95 196.555 102.651 197.079 101.123 197.276Z" fill="white"/>
<path id="Vector_29" opacity="0.25" d="M102.258 197.277C100.293 197.517 111.471 198.5 128.106 198.5C147.514 198.5 160.111 198.151 159.849 197.627C159.849 197.452 141.576 196.644 129.503 196.622C117.431 196.6 103.742 197.081 102.258 197.277Z" fill="white"/>
<path id="Vector_30" opacity="0.31" d="M103.393 197.276C101.494 197.516 112.126 198.456 127.953 198.456C146.401 198.456 158.517 198.128 158.211 197.626C157.906 197.123 140.746 196.708 129.329 196.686C117.911 196.665 104.834 197.08 103.393 197.276Z" fill="white"/>
<path id="Vector_31" opacity="0.38" d="M104.529 197.278C102.717 197.518 112.803 198.392 127.822 198.413C145.288 198.413 156.771 198.086 156.574 197.605C156.378 197.125 139.961 196.753 129.154 196.731C118.348 196.71 105.926 197.081 104.529 197.278Z" fill="white"/>
<path id="Vector_32" opacity="0.44" d="M105.663 197.277C103.916 197.518 113.457 198.326 127.669 198.348C144.151 198.348 155.111 198.042 154.914 197.583C154.718 197.125 139.174 196.797 128.979 196.797C118.784 196.797 107.016 197.081 105.663 197.277Z" fill="white"/>
<path id="Vector_33" opacity="0.5" d="M106.798 197.276C105.117 197.516 114.112 198.259 127.538 198.303C143.016 198.303 153.43 198.019 153.277 197.56C153.124 197.101 138.366 196.861 128.826 196.839C119.286 196.817 108.108 197.079 106.798 197.276Z" fill="white"/>
<path id="Vector_34" opacity="0.56" d="M107.934 197.276C106.34 197.538 114.789 198.193 127.386 198.237C141.903 198.237 151.771 197.975 151.64 197.56C151.509 197.145 137.559 196.904 128.652 196.904C119.745 196.904 109.178 197.079 107.934 197.276Z" fill="white"/>
<path id="Vector_35" opacity="0.63" d="M109.07 197.277C107.541 197.539 115.444 198.129 127.255 198.195C140.769 198.195 150.112 197.933 149.981 197.539C149.85 197.146 136.883 196.971 128.478 196.95C120.073 196.928 110.27 197.059 109.07 197.277Z" fill="white"/>
<path id="Vector_36" opacity="0.69" d="M110.205 197.276C108.742 197.538 116.099 198.062 127.124 198.128C139.655 198.128 148.431 197.887 148.344 197.516C148.256 197.145 135.965 197.014 128.303 197.014C120.64 197.014 111.362 197.057 110.205 197.276Z" fill="white"/>
<path id="Vector_37" opacity="0.75" d="M111.34 197.276C109.965 197.538 116.776 198.019 126.972 198.084C138.52 198.084 146.773 197.866 146.62 197.516C146.467 197.167 135.071 197.079 128.063 197.057C121.055 197.036 112.454 197.057 111.34 197.276Z" fill="white"/>
<path id="Vector_38" opacity="0.81" d="M112.476 197.276C111.166 197.538 117.431 197.953 126.841 198.019C137.385 198.019 145.113 197.822 145.048 197.494C144.982 197.167 134.372 197.123 127.976 197.101C121.579 197.079 113.545 197.057 112.476 197.276Z" fill="white"/>
<path id="Vector_39" opacity="0.88" d="M113.61 197.277C112.366 197.517 117.976 197.889 126.709 197.976C132.288 198.227 137.878 198.06 143.432 197.474C143.432 197.299 133.586 197.168 127.822 197.168C122.059 197.168 114.636 197.059 113.61 197.277Z" fill="white"/>
<path id="Vector_40" opacity="0.94" d="M114.724 197.276C113.589 197.516 118.763 197.822 126.557 197.91C131.655 198.157 136.764 198.011 141.839 197.473C141.839 197.298 132.844 197.232 127.692 197.211C122.54 197.189 115.707 197.036 114.724 197.276Z" fill="white"/>
<path id="Vector_41" d="M115.858 197.277C114.789 197.517 119.417 197.757 126.403 197.867C130.977 198.093 135.561 197.954 140.113 197.451C140.113 197.277 131.97 197.277 127.473 197.277C122.975 197.277 116.797 197.036 115.858 197.277Z" fill="white"/>
</g>
<g id="Group_2" opacity="0.2">
<path id="Vector_42" opacity="0.8" d="M140.33 197.56L135.462 190.984L101.842 189.324V190.984L115.028 197.56H140.33Z" fill="url(#paint4_linear_646_21550)"/>
<path id="Vector_43" opacity="0.8" d="M69.9033 190.984L65.0349 197.56H89.0712L101.842 190.984V189.324L69.9033 190.984Z" fill="url(#paint5_linear_646_21550)"/>
<path id="Vector_44" opacity="0.9" d="M142.033 197.56L135.462 190.984L140.33 197.56H142.033Z" fill="url(#paint6_linear_646_21550)"/>
<path id="Vector_45" opacity="0.9" d="M65.0346 197.56L69.903 190.984L63.3318 197.56H65.0346Z" fill="url(#paint7_linear_646_21550)"/>
</g>
<path id="Vector_46" opacity="0.5" d="M101.843 191.356L155.198 164.727L176.68 112.168L155.198 59.63L103.371 38.1562L50.1679 59.63L28.7078 112.168L50.1679 164.727L101.843 191.356Z" fill="url(#paint8_linear_646_21550)"/>
<path id="Vector_47" opacity="0.8" d="M181.811 79.3773L155.198 59.6292L135.463 33L181.811 79.3773Z" fill="url(#paint9_linear_646_21550)"/>
<path id="Vector_48" opacity="0.8" d="M176.681 112.167L181.812 79.3772V144.978L176.681 112.167Z" fill="url(#paint10_linear_646_21550)"/>
<path id="Vector_49" opacity="0.9" d="M135.463 191.356L155.198 164.727L181.811 144.979L135.463 191.356Z" fill="url(#paint11_linear_646_21550)"/>
<path id="Vector_50" opacity="0.9" d="M69.9042 191.356L50.1687 164.727L23.5564 144.979L69.9042 191.356Z" fill="url(#paint12_linear_646_21550)"/>
<path id="Vector_51" opacity="0.8" d="M23.5564 79.3772L28.7086 112.167L23.5564 144.978V79.3772Z" fill="url(#paint13_linear_646_21550)"/>
<path id="Vector_52" opacity="0.9" d="M69.9042 33L50.1687 59.6292L23.5564 79.3773L69.9042 33Z" fill="url(#paint14_linear_646_21550)"/>
<path id="Vector_53" opacity="0.9" d="M135.463 33L103.371 38.1555L69.9041 33H135.463Z" fill="url(#paint15_linear_646_21550)"/>
<path id="Vector_54" d="M181.811 79.3769L155.199 59.6289L176.681 112.167L181.811 79.3769Z" fill="white"/>
<path id="Vector_55" opacity="0.8" d="M181.811 144.977L176.681 112.166L155.199 164.725L181.811 144.977Z" fill="url(#paint16_linear_646_21550)"/>
<path id="Vector_56" opacity="0.8" d="M101.844 191.356L155.199 164.727L135.464 191.356L101.844 193.016V191.356Z" fill="url(#paint17_linear_646_21550)"/>
<path id="Vector_57" opacity="0.8" d="M50.1689 164.727L101.844 191.356V193.016L69.9044 191.356L50.1689 164.727Z" fill="url(#paint18_linear_646_21550)"/>
<path id="Vector_58" opacity="0.8" d="M28.7086 112.166L50.1687 164.725L23.5564 144.977L28.7086 112.166Z" fill="url(#paint19_linear_646_21550)"/>
<path id="Vector_59" opacity="0.8" d="M23.5564 79.3769L50.1687 59.6289L28.7086 112.167L23.5564 79.3769Z" fill="url(#paint20_linear_646_21550)"/>
<path id="Vector_60" opacity="0.8" d="M103.372 38.1555L69.9044 33L50.1689 59.6292L103.372 38.1555Z" fill="url(#paint21_linear_646_21550)"/>
<path id="Vector_61" opacity="0.8" d="M155.198 59.6292L135.463 33L103.371 38.1555L155.198 59.6292Z" fill="url(#paint22_linear_646_21550)"/>
<g id="Group_3" style="mix-blend-mode:overlay">
<path id="Vector_62" opacity="0.06" d="M142.58 41.6949C142.078 41.4327 142.973 44.6003 145.702 48.2484C148.889 52.5082 151.225 54.9986 151.64 54.5617C150.614 51.9467 149.272 49.467 147.645 47.178C146.167 45.1661 144.468 43.3268 142.58 41.6949Z" fill="white"/>
<path id="Vector_63" opacity="0.13" d="M142.733 41.9138C142.252 41.6735 143.104 44.6882 145.724 48.1616C148.78 52.2466 151.007 54.7151 151.422 54.2345C150.442 51.7237 149.151 49.3458 147.579 47.1567C146.167 45.2311 144.541 43.4722 142.733 41.9138Z" fill="white"/>
<path id="Vector_64" opacity="0.19" d="M142.907 42.1312C142.427 41.8909 143.256 44.7745 145.745 48.1168C148.649 52.0052 150.81 54.2771 151.181 53.9057C150.252 51.5081 149.019 49.2395 147.513 47.1556C146.18 45.3061 144.634 43.6197 142.907 42.1312Z" fill="white"/>
<path id="Vector_65" opacity="0.25" d="M143.06 42.3502C142.58 42.1317 143.41 44.8623 145.767 48.0517C148.518 51.7654 150.592 53.9499 150.963 53.5786C149.266 49.256 146.556 45.4049 143.06 42.3502Z" fill="white"/>
<path id="Vector_66" opacity="0.31" d="M143.234 42.5691C142.753 42.3725 143.539 44.9503 145.788 47.9867C148.386 51.5257 150.394 53.601 150.744 53.2514C149.878 51.0889 148.749 49.0417 147.382 47.1566C146.174 45.4776 144.783 43.9389 143.234 42.5691Z" fill="white"/>
<path id="Vector_67" opacity="0.38" d="M143.497 42.7868C143.039 42.5901 143.803 44.9713 145.92 47.9204C148.387 51.2845 150.287 53.2506 150.636 52.9229C149.81 50.8745 148.732 48.9372 147.427 47.1558C146.286 45.5553 144.968 44.0896 143.497 42.7868Z" fill="white"/>
<path id="Vector_68" opacity="0.44" d="M143.496 43.0052C143.06 42.8305 143.78 45.1897 145.679 47.8767C147.993 51.0224 149.827 52.9229 150.155 52.6171C149.365 50.6773 148.339 48.8428 147.098 47.1558C146.059 45.6399 144.851 44.2474 143.496 43.0052Z" fill="white"/>
<path id="Vector_69" opacity="0.5" d="M143.715 43.2247C143.279 43.0499 143.977 45.2344 145.898 47.8121C148.081 50.7831 149.806 52.5744 150.134 52.2904C149.374 50.4692 148.399 48.7457 147.23 47.1568C146.215 45.7137 145.036 44.3941 143.715 43.2247Z" fill="white"/>
<path id="Vector_70" opacity="0.56" d="M143.868 43.4417C143.453 43.2888 144.108 45.3204 145.877 47.8107C147.907 50.6069 149.544 52.3108 149.85 52.0268C149.146 50.3165 148.229 48.7018 147.121 47.2209C146.191 45.8358 145.099 44.567 143.868 43.4417Z" fill="white"/>
<path id="Vector_71" opacity="0.63" d="M144.042 43.661C143.627 43.5081 144.26 45.4086 145.898 47.6805C147.775 50.3019 149.347 51.8966 149.631 51.6345C148.953 50.0786 148.088 48.6114 147.055 47.2654C146.194 45.9513 145.183 44.7417 144.042 43.661Z" fill="white"/>
<path id="Vector_72" opacity="0.69" d="M144.196 43.8564C143.781 43.7472 144.392 45.4948 145.92 47.6356C147.449 49.7765 149.13 51.5459 149.413 51.3056C148.769 49.8328 147.956 48.44 146.99 47.155C146.181 45.9571 145.244 44.851 144.196 43.8564Z" fill="white"/>
<path id="Vector_73" opacity="0.75" d="M144.349 44.0762C143.956 44.0762 144.545 45.5835 145.942 47.5714C147.339 49.5593 148.933 51.2195 149.195 51.0011C148.625 49.6361 147.892 48.3452 147.012 47.1563C146.244 46.032 145.35 44.9986 144.349 44.0762Z" fill="white"/>
<path id="Vector_74" opacity="0.81" d="M144.523 44.2949C144.13 44.2949 144.697 45.6712 145.964 47.5062C147.23 49.3411 148.714 50.8703 148.976 50.6737C148.396 49.4226 147.663 48.2486 146.793 47.1785C146.15 46.1328 145.388 45.1652 144.523 44.2949Z" fill="white"/>
<path id="Vector_75" opacity="0.88" d="M144.675 44.5117C144.304 44.5117 144.828 45.7569 145.985 47.439C147.142 49.121 148.518 50.541 148.758 50.3444C148.231 49.2092 147.564 48.145 146.771 47.1768C146.189 46.2029 145.484 45.3073 144.675 44.5117Z" fill="white"/>
<path id="Vector_76" opacity="0.94" d="M144.85 44.7305C144.479 44.7305 144.981 45.8446 146.007 47.3956C147.034 48.9466 148.191 50.1918 148.54 50.017C148.048 48.9981 147.432 48.0442 146.706 47.1771C145.986 46.1722 145.156 44.7742 144.85 44.7305Z" fill="white"/>
<path id="Vector_77" d="M145.004 44.9492C144.655 44.9492 145.004 45.9323 146.03 47.3303C147.056 48.7284 148.213 49.8644 148.213 49.6896C148.213 49.5149 147.187 48.0294 146.554 47.1774C145.921 46.3255 145.31 44.9929 145.004 44.9492Z" fill="white"/>
</g>
<g id="Group_4" style="mix-blend-mode:overlay">
<path id="Vector_78" opacity="0.06" d="M65.0139 39.6411C65.2541 38.8765 61.6955 41.8256 57.8751 47.134C53.3778 53.4254 50.8236 57.6415 51.3257 57.8818C54.2545 55.1064 56.9354 52.0803 59.3378 48.8379C61.4677 45.9258 63.3656 42.8507 65.0139 39.6411Z" fill="white"/>
<path id="Vector_79" opacity="0.13" d="M64.7731 39.9464C65.0132 39.2255 61.6293 42.0217 57.9398 47.1334C53.5736 53.1409 51.194 57.1822 51.6961 57.4225C54.5051 54.7374 57.0762 51.8138 59.3807 48.6844C61.4115 45.9226 63.2149 43.0003 64.7731 39.9464Z" fill="white"/>
<path id="Vector_80" opacity="0.19" d="M64.5553 40.274C64.7518 39.5531 61.5426 42.2401 58.006 47.1334C53.8798 52.8568 51.4566 56.7453 52.0242 56.9856C54.6993 54.4293 57.1464 51.6445 59.3377 48.6626C61.294 46.0076 63.0386 43.2028 64.5553 40.274Z" fill="white"/>
<path id="Vector_81" opacity="0.25" d="M64.3157 40.5799C64.5122 39.8808 61.4558 42.4586 58.0938 47.1334C54.1641 52.5729 51.9155 56.3084 52.3958 56.5487C54.9407 54.1107 57.2707 51.4576 59.36 48.6189C61.2255 46.0771 62.8828 43.3887 64.3157 40.5799Z" fill="white"/>
<path id="Vector_82" opacity="0.31" d="M64.097 40.9085C64.2717 40.2313 61.3681 42.6779 58.1589 47.1125C54.4258 52.268 52.2863 55.8506 52.7447 56.069C55.1458 53.7472 57.3374 51.2179 59.2941 48.5106C61.0977 46.1106 62.7039 43.5682 64.097 40.9085Z" fill="white"/>
<path id="Vector_83" opacity="0.38" d="M63.8564 41.2127C64.031 40.5573 61.2803 42.8948 58.2457 47.089C54.6872 51.9823 52.6569 55.3902 53.0935 55.6086C55.373 53.4007 57.4617 51.0038 59.3373 48.4434C61.0331 46.157 62.5442 43.7392 63.8564 41.2127Z" fill="white"/>
<path id="Vector_84" opacity="0.44" d="M63.639 41.4747C63.7918 40.8412 61.2158 43.0476 58.3122 47.0234C54.972 51.6327 53.029 54.8876 53.422 55.1061C55.5801 53.0091 57.5523 50.7286 59.3164 48.2904C60.9365 46.1374 62.382 43.8582 63.639 41.4747Z" fill="white"/>
<path id="Vector_85" opacity="0.5" d="M63.3986 41.8678C63.5296 41.2343 61.2155 43.3314 58.3774 47.0888C55.2337 51.4578 53.3999 54.5162 53.771 54.7128C55.8084 52.6957 57.664 50.5027 59.3162 48.1592C60.8429 46.1747 62.2081 44.0708 63.3986 41.8678Z" fill="white"/>
<path id="Vector_86" opacity="0.56" d="M63.1804 42.1751C63.2896 41.5853 60.9973 43.5732 58.4649 47.0685C55.4958 51.1098 53.7493 54.0589 54.0986 54.2555C55.9915 52.3888 57.7224 50.3645 59.2726 48.2044C60.7373 46.3046 62.0442 44.2881 63.1804 42.1751Z" fill="white"/>
<path id="Vector_87" opacity="0.63" d="M62.961 42.5021C62.961 41.9123 60.9525 43.791 58.5947 47.0678C55.8221 50.8251 54.2285 53.6213 54.5341 53.8179C56.2806 52.0259 57.8727 50.0893 59.2933 48.029C60.6541 46.2824 61.8802 44.4348 62.961 42.5021Z" fill="white"/>
<path id="Vector_88" opacity="0.69" d="M62.721 42.808C62.721 42.2619 60.8654 44.0095 58.5949 47.046C56.0188 50.5412 54.4906 53.1626 54.8181 53.3592C56.4144 51.7107 57.8746 49.9354 59.1843 48.0509C60.5123 46.4087 61.6956 44.6545 62.721 42.808Z" fill="white"/>
<path id="Vector_89" opacity="0.75" d="M62.5022 43.1357C62.5022 42.5896 60.7993 44.228 58.6817 47.046C56.2803 50.2354 54.8612 52.7257 55.145 52.9005C56.6583 51.3988 58.0388 49.7689 59.2711 48.029C60.4717 46.4831 61.5519 44.8471 62.5022 43.1357Z" fill="white"/>
<path id="Vector_90" opacity="0.81" d="M62.2635 43.4418C62.2635 42.9393 60.7135 44.4467 58.7487 47.0462C57.307 48.5865 56.1994 50.4088 55.4958 52.3983C56.8859 50.99 58.1497 49.4622 59.2727 47.8327C60.3925 46.4568 61.3931 44.9878 62.2635 43.4418Z" fill="white"/>
<path id="Vector_91" opacity="0.88" d="M62.0446 43.7699C62.0446 43.2674 60.6255 44.6655 58.8135 47.0248C57.0016 49.3841 55.5825 51.8307 55.8445 52.0055C57.0941 50.7044 58.2333 49.3015 59.2502 47.8112C60.2899 46.5423 61.2244 45.1907 62.0446 43.7699Z" fill="white"/>
<path id="Vector_92" opacity="0.94" d="M61.8031 44.074C61.8031 43.6153 60.5369 44.8823 58.8777 47.0231C57.6537 48.3127 56.7294 49.8567 56.1707 51.5451C57.2941 50.3582 58.3165 49.0795 59.227 47.7222C60.1911 46.5842 61.0531 45.3634 61.8031 44.074Z" fill="white"/>
<path id="Vector_93" d="M61.5861 44.4037C61.5861 43.945 60.4509 45.1246 58.9663 47.0251C57.8637 48.184 57.029 49.5711 56.5212 51.0883C57.5227 50.0271 58.4286 48.8794 59.2283 47.6586C60.111 46.6473 60.9002 45.5578 61.5861 44.4037Z" fill="white"/>
</g>
<g id="Group_5" style="mix-blend-mode:soft-light">
<path id="Vector_94" opacity="0.06" d="M49.624 60.5242C50.1479 58.7547 45.4761 68.454 39.5379 83.2431C32.5738 100.719 28.3603 111.817 28.7969 111.642C29.2336 111.467 36.0013 95.7386 40.3675 84.8815C44.7338 74.0245 49.1219 61.8349 49.624 60.5242Z" fill="white"/>
<path id="Vector_95" opacity="0.13" d="M49.1648 61.3983C49.6887 59.6944 45.2133 68.9786 39.5371 83.2435C32.8568 99.8895 28.818 110.594 29.2328 110.506C29.6476 110.419 36.1315 95.2146 40.3012 84.8819C44.471 74.5491 48.7936 62.6653 49.1648 61.3983Z" fill="white"/>
<path id="Vector_96" opacity="0.19" d="M48.8156 62.293C49.3177 60.6328 45.0388 69.5019 39.6028 83.0678C33.2499 98.9274 29.3421 109.195 29.7569 109.195C30.1717 109.195 36.3063 94.5583 40.3232 84.6843C44.3402 74.8103 48.4445 63.5164 48.8156 62.293Z" fill="white"/>
<path id="Vector_97" opacity="0.25" d="M48.4665 63.1673C48.9468 61.5726 44.8643 70.0267 39.734 82.959C33.6212 98.054 29.9754 107.928 30.281 107.862C30.5866 107.797 36.5248 93.9034 40.3452 84.4882C44.1657 75.0729 48.1172 64.3688 48.4665 63.1673Z" fill="white"/>
<path id="Vector_98" opacity="0.31" d="M48.1175 64.0407C48.5541 62.5116 44.7118 70.5943 39.7561 82.8713C33.9926 97.2017 30.4341 106.639 30.8053 106.595C31.1764 106.551 36.7871 93.2477 40.3674 84.3567C43.9477 75.4658 47.7682 65.2204 48.1175 64.0407Z" fill="white"/>
<path id="Vector_99" opacity="0.38" d="M47.7682 64.936C48.183 63.4506 44.5372 71.0964 39.8216 82.7617C34.3638 96.3275 31.0891 105.35 31.3293 105.328C31.5694 105.306 37.0054 92.6139 40.3892 84.2035C43.7731 75.7931 47.4408 66.0501 47.7682 64.936Z" fill="white"/>
<path id="Vector_100" opacity="0.44" d="M47.4397 65.8104C47.8545 64.3904 44.4051 71.6212 39.9515 82.6748C34.7993 95.4761 31.5683 104.061 31.8739 104.039C32.1796 104.018 37.2663 91.9809 40.4536 84.0511C43.641 76.1213 47.0904 66.9026 47.4397 65.8104Z" fill="white"/>
<path id="Vector_101" opacity="0.5" d="M47.0469 66.6845C47.4181 65.3301 44.187 72.1458 39.9736 82.5878C35.1271 94.6026 32.0488 102.795 32.3545 102.773C32.6601 102.751 37.4412 91.3477 40.4321 83.9203C43.4229 76.493 46.7631 67.6894 47.0469 66.6845Z" fill="white"/>
<path id="Vector_102" opacity="0.56" d="M46.6982 67.6889C47.0475 66.3782 44.0129 72.8007 40.1488 82.5873C37.4294 88.7945 35.032 95.138 32.9663 101.593C33.0973 101.593 37.7474 90.8229 40.5418 83.8762C43.3362 76.9294 46.4144 68.6064 46.6982 67.6889Z" fill="white"/>
<path id="Vector_103" opacity="0.63" d="M46.3489 68.454C46.6764 67.2089 43.8383 73.2163 40.127 82.3912C37.5698 88.209 35.3252 94.1594 33.403 100.217C33.5339 100.217 37.7692 90.0807 40.4763 83.6364C43.1834 77.1921 46.0869 69.4371 46.3489 68.454Z" fill="white"/>
<path id="Vector_104" opacity="0.69" d="M45.9999 69.3276C46.2838 68.148 43.6858 73.6966 40.2147 82.2818C37.8339 87.7259 35.7353 93.2893 33.9272 98.9497C34.0582 98.9497 38.097 89.4252 40.4766 83.4833C42.8562 77.5414 45.738 70.2888 45.9999 69.3276Z" fill="white"/>
<path id="Vector_105" opacity="0.75" d="M45.6283 70.2224C45.9121 69.0864 43.4452 74.2637 40.2796 82.1935C38.068 87.2436 36.1223 92.4061 34.4507 97.6599C34.5598 97.6599 38.3148 88.7908 40.5198 83.3295C42.7248 77.8682 45.41 71.1399 45.6283 70.2224Z" fill="white"/>
<path id="Vector_106" opacity="0.81" d="M45.257 71.0968C45.519 70.0264 43.314 74.8105 40.345 82.0194C38.2737 86.681 36.4732 91.4585 34.9526 96.3279C35.0618 96.3279 38.5111 88.0923 40.5196 83.2208C42.5281 78.3494 45.0824 72.058 45.257 71.0968Z" fill="white"/>
<path id="Vector_107" opacity="0.88" d="M44.9297 72.0595C45.1698 71.0327 43.1613 75.4018 40.4324 82.0646C38.5462 86.3387 36.899 90.7145 35.4985 95.1716C35.4985 95.1716 38.7077 87.5258 40.5634 82.982C42.4191 78.4383 44.7332 72.8241 44.9297 72.0595Z" fill="white"/>
<path id="Vector_108" opacity="0.94" d="M44.5812 72.8666C44.7776 71.9054 42.9875 75.8594 40.4987 81.9105C38.8165 85.7995 37.3587 89.7819 36.1324 93.838C36.1324 93.838 39.0797 86.8912 40.6952 82.9154C42.3107 78.9396 44.4065 73.6749 44.5812 72.8666Z" fill="white"/>
<path id="Vector_109" d="M44.2304 73.74C44.405 72.8443 42.8332 76.3832 40.5845 81.8008C39.0146 85.3053 37.6586 88.9018 36.5239 92.5705C36.6331 92.5705 39.1655 86.2573 40.5845 82.762C42.0036 79.2668 44.0557 74.5264 44.2304 73.74Z" fill="white"/>
</g>
<g id="Group_6" style="mix-blend-mode:overlay">
<path id="Vector_110" opacity="0.06" d="M53.9895 169.599C53.4656 169.337 54.3606 172.505 57.0895 176.153C60.2987 180.522 62.6129 182.903 63.0277 182.466C62.0228 179.846 60.6875 177.364 59.0544 175.082C57.5769 173.07 55.8779 171.231 53.9895 169.599Z" fill="white"/>
<path id="Vector_111" opacity="0.13" d="M54.2304 169.818C53.7283 169.578 54.6015 172.592 57.1995 176.066C60.2558 180.151 62.5045 182.619 62.8974 182.139C61.0727 177.36 58.0685 173.122 54.1649 169.818H54.2304Z" fill="white"/>
<path id="Vector_112" opacity="0.19" d="M54.382 170.036C53.9017 169.795 54.7313 172.679 57.22 176.021C60.1236 179.91 62.2849 182.181 62.6779 181.81C61.739 179.417 60.507 177.15 59.0102 175.06C57.6716 173.208 56.118 171.521 54.382 170.036Z" fill="white"/>
<path id="Vector_113" opacity="0.25" d="M54.5565 170.364C54.0762 170.145 54.884 172.876 57.2417 176.065C60.0143 179.779 62.0883 181.964 62.4594 181.592C61.5502 179.318 60.3701 177.161 58.9446 175.17C57.665 173.41 56.1932 171.798 54.5565 170.364Z" fill="white"/>
<path id="Vector_114" opacity="0.31" d="M54.7095 170.473C54.251 170.277 55.0369 172.855 57.2637 175.891C59.8835 179.43 61.8701 181.505 62.2413 181.156C61.3648 178.994 60.2285 176.948 58.8574 175.061C57.6565 173.377 56.2646 171.837 54.7095 170.473Z" fill="white"/>
<path id="Vector_115" opacity="0.38" d="M54.885 170.691C54.4265 170.494 55.1688 172.876 57.2864 175.825C59.7534 179.167 61.6527 181.155 62.002 180.827C61.1856 178.774 60.1069 176.836 58.7928 175.06C57.6641 173.457 56.3527 171.991 54.885 170.691Z" fill="white"/>
<path id="Vector_116" opacity="0.44" d="M55.0366 170.91C54.5782 170.735 55.3204 173.094 57.2197 175.781C59.5557 178.927 61.3677 180.827 61.586 180.521C60.8062 178.577 59.7789 176.741 58.5296 175.06C57.5293 173.546 56.3572 172.153 55.0366 170.91Z" fill="white"/>
<path id="Vector_117" opacity="0.5" d="M55.1895 171.129C54.7529 170.954 55.4515 173.117 57.3727 175.717C59.5558 178.687 61.2805 180.479 61.6079 180.086C60.8581 178.26 59.8827 176.535 58.7044 174.952C57.6889 173.542 56.5089 172.259 55.1895 171.129Z" fill="white"/>
<path id="Vector_118" opacity="0.56" d="M55.3648 171.346C54.9282 171.193 55.605 173.225 57.3515 175.715C59.3818 178.511 61.041 180.215 61.3466 179.931C60.6312 178.222 59.7073 176.608 58.5959 175.125C57.6713 173.743 56.5868 172.474 55.3648 171.346Z" fill="white"/>
<path id="Vector_119" opacity="0.63" d="M55.518 171.565C55.1032 171.412 55.7363 173.313 57.3737 175.585C59.2512 178.206 60.823 179.801 61.1287 179.539C60.4401 177.984 59.5679 176.517 58.5307 175.17C57.6839 173.845 56.6714 172.634 55.518 171.565Z" fill="white"/>
<path id="Vector_120" opacity="0.69" d="M55.6923 171.762C55.2775 171.762 55.8888 173.4 57.3951 175.541C58.9015 177.682 60.6262 179.451 60.91 179.211C60.2638 177.734 59.4429 176.341 58.4649 175.06C57.6682 173.859 56.7381 172.753 55.6923 171.762Z" fill="white"/>
<path id="Vector_121" opacity="0.75" d="M55.8451 171.98C55.4521 171.98 56.0416 173.488 57.417 175.476C58.7923 177.464 60.4078 179.124 60.6916 178.884C60.1104 177.531 59.3781 176.248 58.5085 175.061C57.7457 173.932 56.8516 172.898 55.8451 171.98Z" fill="white"/>
<path id="Vector_122" opacity="0.81" d="M55.9979 172.199C55.6268 172.199 56.1726 173.575 57.4606 175.41C58.7487 177.245 60.2114 178.775 60.4515 178.578C59.8775 177.317 59.1438 176.135 58.2684 175.061C57.6286 174.02 56.8663 173.059 55.9979 172.199Z" fill="white"/>
<path id="Vector_123" opacity="0.88" d="M56.1734 172.416C55.7805 172.416 56.3262 173.661 57.4833 175.343C58.6404 177.025 59.9939 178.445 60.2341 178.249C59.7093 177.117 59.0496 176.054 58.2692 175.081C57.6794 174.112 56.9758 173.218 56.1734 172.416Z" fill="white"/>
<path id="Vector_124" opacity="0.94" d="M56.3257 172.549C55.9546 172.549 56.4567 173.663 57.5046 175.214C58.5525 176.765 59.6878 178.01 60.0152 177.835C59.5257 176.82 58.9174 175.867 58.2032 174.995C57.4828 174.078 56.6532 172.68 56.3257 172.549Z" fill="white"/>
<path id="Vector_125" d="M56.4999 172.854C56.1288 172.854 56.4999 173.837 57.526 175.235C58.5521 176.633 59.5782 177.769 59.7091 177.594C59.2603 176.692 58.7031 175.848 58.05 175.082C57.5042 174.208 56.8056 172.897 56.4999 172.854Z" fill="white"/>
</g>
</g>
</g>
<defs>
<linearGradient id="paint0_linear_646_21550" x1="28.1843" y1="218.705" x2="177.62" y2="218.705" gradientUnits="userSpaceOnUse">
<stop stop-color="#455756"/>
<stop offset="1" stop-color="#001110"/>
</linearGradient>
<linearGradient id="paint1_linear_646_21550" x1="32.1794" y1="191.355" x2="173.624" y2="191.355" gradientUnits="userSpaceOnUse">
<stop stop-color="#001110"/>
<stop offset="1" stop-color="#455756"/>
</linearGradient>
<linearGradient id="paint2_linear_646_21550" x1="23.6214" y1="217.701" x2="35.454" y2="217.701" gradientUnits="userSpaceOnUse">
<stop stop-color="#001110"/>
<stop offset="1" stop-color="#455756"/>
</linearGradient>
<linearGradient id="paint3_linear_646_21550" x1="182.204" y1="217.701" x2="170.35" y2="217.701" gradientUnits="userSpaceOnUse">
<stop stop-color="#001110"/>
<stop offset="1" stop-color="#455756"/>
</linearGradient>
<linearGradient id="paint4_linear_646_21550" x1="101.842" y1="193.431" x2="140.33" y2="193.431" gradientUnits="userSpaceOnUse">
<stop stop-color="#687C83"/>
<stop offset="0.3" stop-color="#7B8E95"/>
<stop offset="0.9" stop-color="#ACBCC4"/>
<stop offset="1" stop-color="#B5C4CC"/>
</linearGradient>
<linearGradient id="paint5_linear_646_21550" x1="65.0349" y1="193.431" x2="101.842" y2="193.431" gradientUnits="userSpaceOnUse">
<stop stop-color="#DBE0E2"/>
<stop offset="0.19" stop-color="#C1CDD3"/>
<stop offset="0.31" stop-color="#B5C4CC"/>
<stop offset="0.44" stop-color="#8F9EA4"/>
<stop offset="0.71" stop-color="#425355"/>
<stop offset="0.91" stop-color="#122323"/>
<stop offset="1" stop-color="#001110"/>
</linearGradient>
<linearGradient id="paint6_linear_646_21550" x1="135.462" y1="194.261" x2="142.033" y2="194.261" gradientUnits="userSpaceOnUse">
<stop stop-color="#001110"/>
<stop offset="1" stop-color="#575756"/>
</linearGradient>
<linearGradient id="paint7_linear_646_21550" x1="63.3318" y1="194.261" x2="69.903" y2="194.261" gradientUnits="userSpaceOnUse">
<stop stop-color="#001110"/>
<stop offset="1" stop-color="#455756"/>
</linearGradient>
<linearGradient id="paint8_linear_646_21550" x1="102.394" y1="40.58" x2="103.284" y2="178.304" gradientUnits="userSpaceOnUse">
<stop stop-color="#687C83"/>
<stop offset="0.13" stop-color="#7B8D94"/>
<stop offset="0.39" stop-color="#ACBAC1"/>
<stop offset="0.49" stop-color="#C3CFD5"/>
<stop offset="0.62" stop-color="#C7D2D8"/>
<stop offset="0.76" stop-color="#D4DCE1"/>
<stop offset="0.89" stop-color="#E9EDEF"/>
<stop offset="1" stop-color="white"/>
</linearGradient>
<linearGradient id="paint9_linear_646_21550" x1="181.81" y1="56.1996" x2="135.463" y2="56.1996" gradientUnits="userSpaceOnUse">
<stop stop-color="#DBE0E2"/>
<stop offset="0.19" stop-color="#C1CDD3"/>
<stop offset="0.31" stop-color="#B5C4CC"/>
<stop offset="0.44" stop-color="#8F9EA4"/>
<stop offset="0.71" stop-color="#425355"/>
<stop offset="0.91" stop-color="#122323"/>
<stop offset="1" stop-color="#001110"/>
</linearGradient>
<linearGradient id="paint10_linear_646_21550" x1="181.812" y1="112.189" x2="176.681" y2="112.189" gradientUnits="userSpaceOnUse">
<stop stop-color="#DBE0E2"/>
<stop offset="0.04" stop-color="#CFD7DB"/>
<stop offset="0.1" stop-color="#C0CCD3"/>
<stop offset="0.17" stop-color="#B8C6CE"/>
<stop offset="0.29" stop-color="#B5C4CC"/>
<stop offset="0.36" stop-color="#ACBCC4"/>
<stop offset="0.79" stop-color="#7B8E95"/>
<stop offset="1" stop-color="#687C83"/>
</linearGradient>
<linearGradient id="paint11_linear_646_21550" x1="181.81" y1="168.156" x2="135.463" y2="168.156" gradientUnits="userSpaceOnUse">
<stop stop-color="#001110"/>
<stop offset="1" stop-color="#575756"/>
</linearGradient>
<linearGradient id="paint12_linear_646_21550" x1="69.9261" y1="168.156" x2="23.5782" y2="168.156" gradientUnits="userSpaceOnUse">
<stop stop-color="#001110"/>
<stop offset="1" stop-color="#455756"/>
</linearGradient>
<linearGradient id="paint13_linear_646_21550" x1="28.7086" y1="112.189" x2="23.5782" y2="112.189" gradientUnits="userSpaceOnUse">
<stop stop-color="#DBE0E2"/>
<stop offset="0.28" stop-color="#D9DFE1"/>
<stop offset="0.38" stop-color="#D2DADD"/>
<stop offset="0.45" stop-color="#C7D1D6"/>
<stop offset="0.5" stop-color="#B6C5CC"/>
<stop offset="0.51" stop-color="#B5C4CC"/>
<stop offset="0.55" stop-color="#ACBCC4"/>
<stop offset="0.85" stop-color="#7B8E95"/>
<stop offset="1" stop-color="#687C83"/>
</linearGradient>
<linearGradient id="paint14_linear_646_21550" x1="69.9261" y1="56.1996" x2="23.5782" y2="56.1996" gradientUnits="userSpaceOnUse">
<stop stop-color="#001110"/>
<stop offset="1" stop-color="#575756"/>
</linearGradient>
<linearGradient id="paint15_linear_646_21550" x1="135.463" y1="35.5777" x2="69.9259" y2="35.5777" gradientUnits="userSpaceOnUse">
<stop stop-color="#DBE0E2"/>
<stop offset="0.02" stop-color="#CAD4D8"/>
<stop offset="0.05" stop-color="#BECBD1"/>
<stop offset="0.09" stop-color="#B7C5CD"/>
<stop offset="0.19" stop-color="#B5C4CC"/>
<stop offset="0.27" stop-color="#ACBCC4"/>
<stop offset="0.76" stop-color="#7B8E95"/>
<stop offset="1" stop-color="#687C83"/>
</linearGradient>
<linearGradient id="paint16_linear_646_21550" x1="181.811" y1="138.468" x2="155.221" y2="138.468" gradientUnits="userSpaceOnUse">
<stop stop-color="#DBE0E2"/>
<stop offset="0.28" stop-color="#D9DFE1"/>
<stop offset="0.38" stop-color="#D2DADD"/>
<stop offset="0.45" stop-color="#C7D1D6"/>
<stop offset="0.5" stop-color="#B6C5CC"/>
<stop offset="0.51" stop-color="#B5C4CC"/>
<stop offset="0.55" stop-color="#ACBCC4"/>
<stop offset="0.85" stop-color="#7B8E95"/>
<stop offset="1" stop-color="#687C83"/>
</linearGradient>
<linearGradient id="paint17_linear_646_21550" x1="155.221" y1="178.882" x2="101.844" y2="178.882" gradientUnits="userSpaceOnUse">
<stop stop-color="#B5C4CC"/>
<stop offset="0.1" stop-color="#ACBCC4"/>
<stop offset="0.7" stop-color="#7B8E95"/>
<stop offset="1" stop-color="#687C83"/>
</linearGradient>
<linearGradient id="paint18_linear_646_21550" x1="101.844" y1="178.882" x2="50.1689" y2="178.882" gradientUnits="userSpaceOnUse">
<stop stop-color="#001110"/>
<stop offset="0.09" stop-color="#122323"/>
<stop offset="0.29" stop-color="#425355"/>
<stop offset="0.56" stop-color="#8F9EA4"/>
<stop offset="0.69" stop-color="#B5C4CC"/>
<stop offset="0.81" stop-color="#C1CDD3"/>
<stop offset="1" stop-color="#DBE0E2"/>
</linearGradient>
<linearGradient id="paint19_linear_646_21550" x1="50.1687" y1="138.468" x2="23.5782" y2="138.468" gradientUnits="userSpaceOnUse">
<stop stop-color="#687C83"/>
<stop offset="0.3" stop-color="#7B8E95"/>
<stop offset="0.9" stop-color="#ACBCC4"/>
<stop offset="1" stop-color="#B5C4CC"/>
</linearGradient>
<linearGradient id="paint20_linear_646_21550" x1="50.1687" y1="85.9086" x2="23.5782" y2="85.9086" gradientUnits="userSpaceOnUse">
<stop stop-color="#B5C4CC"/>
<stop offset="0.1" stop-color="#ACBCC4"/>
<stop offset="0.7" stop-color="#7B8E95"/>
<stop offset="1" stop-color="#687C83"/>
</linearGradient>
<linearGradient id="paint21_linear_646_21550" x1="70.9305" y1="35.2501" x2="76.722" y2="48.7477" gradientUnits="userSpaceOnUse">
<stop stop-color="#687C83"/>
<stop offset="0.16" stop-color="#7B8E95"/>
<stop offset="0.5" stop-color="#ACBCC4"/>
<stop offset="0.55" stop-color="#B5C4CC"/>
<stop offset="0.65" stop-color="#B9C8CF"/>
<stop offset="0.76" stop-color="#C6D2D8"/>
<stop offset="0.87" stop-color="#DCE3E7"/>
<stop offset="0.98" stop-color="#FAFBFC"/>
<stop offset="1" stop-color="white"/>
</linearGradient>
<linearGradient id="paint22_linear_646_21550" x1="137.34" y1="30.4441" x2="129.036" y2="49.4674" gradientUnits="userSpaceOnUse">
<stop stop-color="#687C83"/>
<stop offset="0.15" stop-color="#7B8E95"/>
<stop offset="0.45" stop-color="#ACBCC4"/>
<stop offset="0.49" stop-color="#B5C4CC"/>
<stop offset="0.6" stop-color="#C7D3D9"/>
<stop offset="0.86" stop-color="#F0F3F4"/>
<stop offset="1" stop-color="white"/>
</linearGradient>
</defs>
</svg>
