<svg width="84" height="239" viewBox="0 0 84 239" fill="none" xmlns="http://www.w3.org/2000/svg">
<g id="Frame 20151">
<g id="Group 7">
<g id="Vector" style="mix-blend-mode:multiply" opacity="0.05">
<path d="M81.8528 234.421C81.6684 237.273 73.1522 238.765 41.3507 238.765C11.913 238.581 1.87127 237.876 1.93832 234.404C2.29037 219.223 23.4467 199.529 41.2166 199.529C58.9866 199.529 82.5402 224.859 81.8528 234.421Z" fill="#F9F9F9"/>
</g>
<g id="Vector_2" style="mix-blend-mode:multiply" opacity="0.1">
<path d="M81.5329 234.286C81.3485 237.121 73.0167 238.53 41.3996 238.53C12.1462 238.345 2.12129 237.708 2.20511 234.252C2.54039 219.591 23.5961 200.568 41.2655 200.568C58.9349 200.568 82.1867 224.959 81.5329 234.286Z" fill="#F2F2F2"/>
</g>
<g id="Vector_3" style="mix-blend-mode:multiply" opacity="0.14">
<path d="M81.2156 234.152C81.048 236.971 72.8336 238.296 41.4679 238.296C12.3822 238.111 2.3908 237.558 2.45785 234.102C2.77637 219.944 23.7483 201.609 41.3171 201.609C58.8858 201.609 81.8359 225.06 81.2156 234.152Z" fill="#ECECEC"/>
</g>
<g id="Vector_4" style="mix-blend-mode:multiply" opacity="0.19">
<path d="M80.8965 234.018C80.7289 236.803 72.7491 238.061 41.5176 238.061C12.6163 237.877 2.65838 237.39 2.72543 233.951C3.01042 220.297 23.8985 202.633 41.2829 202.633C58.6673 202.633 81.4497 225.178 80.8965 234.018Z" fill="#E6E6E6"/>
</g>
<g id="Vector_5" style="mix-blend-mode:multiply" opacity="0.24">
<path d="M80.5793 233.884C80.4117 236.652 72.6331 237.809 41.586 237.809C12.8523 237.642 2.92798 237.239 2.92798 233.884C3.21297 220.733 24.0172 203.689 41.3513 203.689C58.6854 203.689 81.099 225.279 80.5793 233.884Z" fill="#DFDFDF"/>
</g>
<g id="Vector_6" style="mix-blend-mode:multiply" opacity="0.29">
<path d="M80.2606 233.75C80.1097 236.501 72.4988 237.575 41.7031 237.575C13.2042 237.407 3.24628 237.055 3.29658 233.666C3.5648 221.018 24.2852 204.713 41.5187 204.713C58.7522 204.713 80.7468 225.379 80.2606 233.75Z" fill="#D9D9D9"/>
</g>
<g id="Vector_7" style="mix-blend-mode:multiply" opacity="0.33">
<path d="M79.9413 233.616C79.7904 236.333 72.3639 237.34 41.7023 237.34C13.3207 237.172 3.42986 236.904 3.49692 233.515C3.73162 221.37 24.3682 205.736 41.5012 205.736C58.6341 205.736 80.3939 225.497 79.9413 233.616Z" fill="#D3D3D3"/>
</g>
<g id="Vector_8" style="mix-blend-mode:multiply" opacity="0.38">
<path d="M79.6221 233.498C79.488 236.182 72.2291 237.104 41.752 237.104C13.5548 236.936 3.69746 236.735 3.74775 233.363C3.94892 221.722 24.5185 206.775 41.534 206.775C58.5496 206.775 80.0412 225.597 79.6221 233.498Z" fill="#CCCCCC"/>
</g>
<g id="Vector_9" style="mix-blend-mode:multiply" opacity="0.43">
<path d="M79.305 233.364C79.1709 236.031 72.0965 236.869 41.8205 236.869C13.7909 236.702 3.95037 236.568 4.01743 233.213C4.20184 222.141 24.7211 207.799 41.5858 207.799C58.4505 207.799 79.6739 225.697 79.305 233.364Z" fill="#C6C6C6"/>
</g>
<g id="Vector_10" style="mix-blend-mode:multiply" opacity="0.48">
<path d="M78.9849 233.23C78.8676 235.863 71.9608 236.585 41.8692 236.585C14.024 236.417 4.21699 236.35 4.26728 233.012C4.43492 222.393 24.8201 208.789 41.6345 208.789C58.4489 208.789 79.3202 225.799 78.9849 233.23Z" fill="#C0C0C0"/>
</g>
<g id="Vector_11" style="mix-blend-mode:multiply" opacity="0.52">
<path d="M78.6681 233.096C78.5508 235.712 71.8284 236.451 41.938 236.451C14.2604 236.283 4.47016 236.3 4.52046 232.961C4.67133 222.897 24.9727 209.93 41.6865 209.93C58.4003 209.93 78.9699 225.916 78.6681 233.096Z" fill="#B9B9B9"/>
</g>
<g id="Vector_12" style="mix-blend-mode:multiply" opacity="0.57">
<path d="M78.3655 232.962C78.265 235.562 71.6599 236.166 42.0042 236.166C14.511 235.998 4.75434 236.082 4.80464 232.811C4.93875 223.182 25.1395 211.004 41.6857 211.004C58.2319 211.004 78.617 226.017 78.3655 232.962Z" fill="#B3B3B3"/>
</g>
<g id="Vector_13" style="mix-blend-mode:multiply" opacity="0.62">
<path d="M78.0306 232.827C77.93 235.394 71.5764 235.931 42.0548 235.931C14.7293 235.763 5.00611 235.931 5.03964 232.576C5.15699 223.467 25.2739 211.893 41.7698 211.893C58.2657 211.893 78.2653 226.118 78.0306 232.827Z" fill="#ADADAD"/>
</g>
<g id="Vector_14" style="mix-blend-mode:multiply" opacity="0.67">
<path d="M77.7112 232.693C77.7112 235.243 71.4414 235.695 42.1042 235.695C14.9631 235.528 5.22314 235.695 5.22314 232.475C5.34049 223.869 25.3401 212.982 41.7521 212.982C58.1642 212.982 77.9123 226.234 77.7112 232.693Z" fill="#A6A6A6"/>
</g>
<g id="Vector_15" style="mix-blend-mode:multiply" opacity="0.71">
<path d="M77.3922 232.559C77.3922 235.092 71.3069 235.461 42.1876 235.461C15.2141 235.293 5.54127 235.595 5.57479 232.324C5.65861 224.222 25.5911 214.006 41.8691 214.006C58.147 214.006 77.5599 226.335 77.3922 232.559Z" fill="#A0A0A0"/>
</g>
<g id="Vector_16" style="mix-blend-mode:multiply" opacity="0.76">
<path d="M77.0754 232.44C77.0754 234.923 71.1744 235.225 42.2228 235.225C15.4002 235.057 5.77759 235.426 5.81112 232.172C5.81112 224.573 25.7269 215.045 41.9042 215.045C58.0816 215.045 77.2095 226.435 77.0754 232.44Z" fill="#9A9A9A"/>
</g>
<g id="Vector_17" style="mix-blend-mode:multiply" opacity="0.81">
<path d="M76.6888 232.306C76.6888 234.772 70.9722 234.99 42.2218 234.99C15.6004 234.823 5.97779 235.259 6.01132 232.021C6.01132 224.942 25.8097 216.068 41.8865 216.068C57.9633 216.068 76.8564 226.553 76.6888 232.306Z" fill="#939393"/>
</g>
<g id="Vector_18" style="mix-blend-mode:multiply" opacity="0.86">
<path d="M76.4381 232.206C76.4381 234.655 70.9059 234.79 42.3399 234.79C15.9029 234.622 6.31382 235.142 6.33059 231.921C6.33059 225.329 26.0284 217.143 42.0046 217.143C57.9808 217.143 76.5219 226.654 76.4381 232.206Z" fill="#8D8D8D"/>
</g>
<g id="Vector_19" style="mix-blend-mode:multiply" opacity="0.9">
<path d="M76.121 232.038C76.121 234.453 70.79 234.521 42.4084 234.521C16.139 234.353 6.5835 234.94 6.5835 231.736C6.5835 225.647 26.1975 218.148 42.0396 218.148C57.8817 218.148 76.1713 226.754 76.121 232.038Z" fill="#878787"/>
</g>
<g id="Vector_20" style="mix-blend-mode:multiply" opacity="0.95">
<path d="M75.7834 231.904C75.7834 234.303 70.6536 234.269 42.4564 234.269C16.3714 234.118 6.83262 234.772 6.84939 231.585C6.84939 225.999 26.346 219.172 42.054 219.172C57.762 219.172 75.8169 226.871 75.7834 231.904Z" fill="#808080"/>
</g>
<g id="Vector_21" style="mix-blend-mode:multiply">
<path d="M75.4654 231.771C75.4654 234.153 70.4361 234.035 42.5239 234.035C16.6066 233.884 7.10132 234.606 7.10132 231.435C7.10132 226.403 26.4974 220.213 42.1383 220.213C57.7792 220.213 75.4654 226.973 75.4654 231.771Z" fill="#7A7A7A"/>
</g>
<path id="Vector_22" d="M73.4704 233.935H8.89502L13.6057 206.559H68.7597L73.4704 233.935Z" fill="url(#paint0_linear_646_21694)"/>
<path id="Vector_23" d="M59.7567 198.506H21.6016L11.4761 205.249L13.6051 206.558H68.759L70.8881 205.249L59.7567 198.506Z" fill="url(#paint1_linear_646_21694)"/>
<path id="Vector_24" d="M11.4769 205.25L13.6059 206.558L8.89523 233.935L5.92798 232.643L11.4769 205.25Z" fill="url(#paint2_linear_646_21694)"/>
<path id="Vector_25" d="M70.8883 205.25L68.7593 206.558L73.47 233.935L76.4372 232.643L70.8883 205.25Z" fill="url(#paint3_linear_646_21694)"/>
<g id="Group" style="mix-blend-mode:overlay">
<path id="Vector_26" opacity="0.06" d="M20.0743 206.574C18.3979 206.709 28.4564 207.313 43.3429 207.279C60.9117 207.279 67.4497 207.195 67.1982 206.893C66.9467 206.591 55.4633 206.105 44.5164 206.122C33.5694 206.138 21.3651 206.491 20.0743 206.574Z" fill="white"/>
<path id="Vector_27" opacity="0.13" d="M20.9637 206.575C19.2873 206.709 28.9267 207.279 43.2265 207.246C59.9906 207.246 66.4447 207.162 66.21 206.877C65.9754 206.592 54.844 206.139 44.4167 206.139C33.9894 206.139 22.1875 206.474 20.9637 206.575Z" fill="white"/>
<path id="Vector_28" opacity="0.19" d="M21.8523 206.574C20.1759 206.709 29.4465 207.245 43.126 207.229C59.1357 207.229 65.439 207.145 65.2378 206.86C65.0367 206.574 54.2238 206.172 44.2492 206.172C34.2745 206.172 23.0426 206.474 21.8523 206.574Z" fill="white"/>
<path id="Vector_29" opacity="0.25" d="M22.7406 206.575C21.1983 206.709 29.9659 207.212 43.0084 207.195C58.2637 207.195 64.4497 207.195 64.2485 206.843C64.0474 206.491 53.5866 206.189 44.1316 206.206C34.6766 206.223 23.8973 206.474 22.7406 206.575Z" fill="white"/>
<path id="Vector_30" opacity="0.31" d="M23.6288 206.575C22.1368 206.709 30.4853 207.179 42.9075 207.162C57.375 207.162 63.4436 207.078 63.2592 206.81C63.0748 206.541 52.966 206.223 43.9804 206.223C34.9949 206.223 24.7185 206.474 23.6288 206.575Z" fill="white"/>
<path id="Vector_31" opacity="0.38" d="M24.5174 206.575C23.0925 206.709 31.0051 207.145 42.7903 207.145C56.4866 207.145 62.4378 207.061 62.287 206.793C62.1361 206.524 52.3291 206.256 43.8464 206.256C35.3638 206.256 25.6071 206.474 24.5174 206.575Z" fill="white"/>
<path id="Vector_32" opacity="0.44" d="M25.4079 206.574C24.0333 206.708 31.5268 207.111 42.6917 207.111C55.6169 207.111 61.434 207.027 61.2999 206.776C61.1658 206.524 51.7108 206.289 43.7143 206.289C35.7179 206.289 26.397 206.457 25.4079 206.574Z" fill="white"/>
<path id="Vector_33" opacity="0.5" d="M26.2939 206.575C24.9863 206.709 32.044 207.078 42.5719 207.078C54.7258 207.078 60.4424 207.078 60.3083 206.76C60.1742 206.441 51.0713 206.307 43.5442 206.324C36.0171 206.34 27.3165 206.458 26.2939 206.575Z" fill="white"/>
<path id="Vector_34" opacity="0.56" d="M27.1833 206.575C25.926 206.709 32.5646 207.044 42.4555 207.061C53.8383 207.061 59.4375 206.977 59.3369 206.742C59.2363 206.508 50.4519 206.34 43.4445 206.34C36.4371 206.34 28.1724 206.457 27.1833 206.575Z" fill="white"/>
<path id="Vector_35" opacity="0.63" d="M28.073 206.558C26.8827 206.709 33.1022 207.01 42.356 207.027C52.9677 207.027 58.4328 206.943 58.349 206.725C58.2652 206.507 49.816 206.373 43.2613 206.373C36.7065 206.373 29.0285 206.457 28.073 206.558Z" fill="white"/>
<path id="Vector_36" opacity="0.69" d="M28.9598 206.559C27.8198 206.71 33.6034 206.978 42.237 206.995C52.0775 206.995 57.442 206.911 57.3246 206.71C57.2073 206.508 49.1605 206.391 43.1422 206.408C37.1239 206.425 29.8818 206.458 28.9598 206.559Z" fill="white"/>
<path id="Vector_37" opacity="0.75" d="M29.8501 206.558C28.7772 206.692 34.125 206.944 42.1382 206.977C46.8898 207.131 51.6461 207.036 56.3877 206.692C56.3877 206.608 48.5589 206.424 42.9764 206.424C37.394 206.424 30.7386 206.441 29.8501 206.558Z" fill="white"/>
<path id="Vector_38" opacity="0.81" d="M30.7539 206.559C29.7145 206.693 34.6432 206.911 42.0194 206.944C46.4914 207.092 50.9681 207.002 55.4307 206.676C55.4307 206.575 47.9706 206.458 42.9582 206.458C37.9457 206.458 31.5921 206.441 30.7539 206.559Z" fill="white"/>
<path id="Vector_39" opacity="0.88" d="M31.6421 206.558C30.6698 206.692 35.1626 206.877 41.9185 206.911C46.0887 207.048 50.2632 206.964 54.4245 206.659C54.4245 206.558 47.3165 206.491 42.7902 206.491C38.2639 206.491 32.4468 206.441 31.6421 206.558Z" fill="white"/>
<path id="Vector_40" opacity="0.94" d="M32.5319 206.558C31.6267 206.692 35.6836 206.843 41.8025 206.893C45.6823 207.013 49.5657 206.929 53.4368 206.642C53.4368 206.541 46.7311 206.507 42.6574 206.524C38.5837 206.541 33.3031 206.44 32.5319 206.558Z" fill="white"/>
<path id="Vector_41" d="M33.4179 206.559C32.5629 206.693 36.2007 206.811 41.6826 206.861C45.2717 206.973 48.8643 206.895 52.4451 206.626C52.4451 206.525 46.058 206.542 42.5208 206.542C38.9836 206.542 34.1555 206.441 33.4179 206.559Z" fill="white"/>
</g>
<path id="Vector_42" opacity="0.8" d="M54.2428 68.1484H27.0346L10.9243 71.7718L23.9668 75.8145H57.3106L70.3531 71.7718L54.2428 68.1484Z" fill="url(#paint4_linear_646_21694)"/>
<path id="Vector_43" opacity="0.7" d="M40.6466 75.8164H23.9663L32.868 204.596H40.6298H48.4084L57.3101 75.8164H40.6466Z" fill="url(#paint5_linear_646_21694)"/>
<path id="Vector_44" style="mix-blend-mode:multiply" opacity="0.4" d="M10.9243 71.7718L27.0346 68.1484L32.8685 199.83L28.074 202.531L10.9243 71.7718Z" fill="url(#paint6_linear_646_21694)"/>
<path id="Vector_45" style="mix-blend-mode:multiply" opacity="0.4" d="M70.3519 71.7718L54.2416 68.1484L48.4077 199.83L53.2023 202.531L70.3519 71.7718Z" fill="url(#paint7_linear_646_21694)"/>
<path id="Vector_46" opacity="0.5" d="M10.9243 71.7734L28.074 202.533L32.8685 204.596L23.9668 75.8162L10.9243 71.7734Z" fill="url(#paint8_linear_646_21694)"/>
<path id="Vector_47" opacity="0.5" d="M70.3519 71.7734L53.2023 202.533L48.4077 204.596L57.3095 75.8162L70.3519 71.7734Z" fill="url(#paint9_linear_646_21694)"/>
<path id="Vector_48" opacity="0.2" d="M28.0708 202.533L32.8653 199.832H48.4057L53.2002 202.533L48.4057 204.596H32.8653L28.0708 202.533Z" fill="url(#paint10_linear_646_21694)"/>
<g id="Vector_49" style="mix-blend-mode:soft-light" opacity="0.5">
<path d="M57.309 75.815H23.9819C23.9819 75.815 48.3569 77.3583 50.8045 82.2062C53.2521 87.0541 45.4735 203.202 46.3285 203.89C46.9091 204.329 47.6126 204.576 48.3402 204.595L56.9569 79.6564L70.3682 71.7891L57.309 75.815Z" fill="#D1FFFF"/>
</g>
<g id="Vector_50" style="mix-blend-mode:overlay" opacity="0.1">
<path d="M10.9243 71.7734L14.6292 100.089L23.9668 75.8162L10.9243 71.7734Z" fill="white"/>
</g>
<g id="Group_2" style="mix-blend-mode:overlay">
<path id="Vector_51" opacity="0.06" d="M11.1458 71.8405C10.71 72.0585 13.0234 74.3399 16.6445 75.1954C20.9193 76.2858 23.6686 76.4703 23.6686 75.6484C21.7266 74.1172 19.5226 72.952 17.1641 72.2095C15.2027 71.6862 13.1565 71.5607 11.1458 71.8405Z" fill="white"/>
<path id="Vector_52" opacity="0.13" d="M11.3106 71.8907C10.8747 72.1255 13.1044 74.2895 16.5745 75.2456C20.6482 76.3024 23.2802 76.4702 23.2802 75.6818C21.4281 74.1944 19.3205 73.0575 17.0607 72.3268C15.1912 71.8052 13.2373 71.657 11.3106 71.8907Z" fill="white"/>
<path id="Vector_53" opacity="0.19" d="M11.578 71.9573C11.1589 72.1921 13.2545 74.2386 16.6073 75.1109C20.4965 76.1174 23.0279 76.2684 23.0447 75.5135C21.2653 74.1267 19.2487 73.0752 17.0934 72.4102C15.304 71.8903 13.4283 71.7363 11.578 71.9573Z" fill="white"/>
<path id="Vector_54" opacity="0.25" d="M11.7963 72.0066C11.394 72.2582 13.4727 74.1873 16.5741 75.0261C20.279 75.999 22.7265 76.1332 22.7265 75.3951C21.0198 74.0931 19.0956 73.1048 17.0435 72.4763C15.3427 71.9742 13.5592 71.8145 11.7963 72.0066Z" fill="white"/>
<path id="Vector_55" opacity="0.31" d="M12.0146 72.0569C11.629 72.3086 13.5401 74.1202 16.5577 74.9422C20.0781 75.8816 22.4084 75.999 22.4084 75.2945C20.7909 74.0571 18.9617 73.1248 17.0103 72.5434C15.3929 72.0558 13.6956 71.8905 12.0146 72.0569Z" fill="white"/>
<path id="Vector_56" opacity="0.38" d="M12.2146 72.1246C11.8458 72.3763 13.6731 74.0705 16.5398 74.8589C19.8926 75.7647 22.0887 75.8654 22.1055 75.1944C20.5683 74.0258 18.8294 73.1502 16.9756 72.6111C15.4372 72.1317 13.8182 71.9663 12.2146 72.1246Z" fill="white"/>
<path id="Vector_57" opacity="0.44" d="M12.4316 72.1755C12.0796 72.4439 13.8063 74.0207 16.5221 74.7756C19.657 75.6478 21.7692 75.7317 21.786 75.0943C20.3348 73.9953 18.6919 73.1762 16.9412 72.6787C15.4858 72.2156 13.9533 72.0446 12.4316 72.1755Z" fill="white"/>
<path id="Vector_58" opacity="0.5" d="M12.6513 72.2244C12.316 72.4928 13.9421 73.9019 16.4903 74.6903C19.4408 75.529 21.5195 75.5961 21.5195 74.9922C20.1407 73.9648 18.5832 73.2026 16.9262 72.7444C15.549 72.2926 14.0966 72.1159 12.6513 72.2244Z" fill="white"/>
<path id="Vector_59" opacity="0.56" d="M12.8705 72.292C12.552 72.5604 14.0775 73.9695 16.4748 74.6069C19.2409 75.4121 21.152 75.4624 21.1688 74.8921C19.8733 73.946 18.4119 73.2518 16.8604 72.8455C15.5813 72.3937 14.2242 72.2054 12.8705 72.292Z" fill="white"/>
<path id="Vector_60" opacity="0.63" d="M13.0894 72.3435C12.7709 72.6287 14.2126 73.87 16.4422 74.541C19.0071 75.2959 20.8176 75.3294 20.8344 74.7759C19.6212 73.9018 18.2572 73.2592 16.811 72.8803C15.6176 72.4591 14.3531 72.2767 13.0894 72.3435Z" fill="white"/>
<path id="Vector_61" opacity="0.69" d="M13.3045 72.3931C13.0027 72.6783 14.3439 73.819 16.4394 74.4565C18.8199 75.1778 20.5298 75.1945 20.5466 74.6745C19.4023 73.8894 18.1239 73.3208 16.7747 72.997C15.6686 72.5703 14.4896 72.3652 13.3045 72.3931Z" fill="white"/>
<path id="Vector_62" opacity="0.75" d="M13.5275 72.461C13.2425 72.7462 14.483 73.7527 16.4109 74.3733C18.607 75.0611 20.2163 75.0611 20.2331 74.5746C19.1784 73.8411 17.9957 73.312 16.7462 73.0146C15.7215 72.615 14.6267 72.4267 13.5275 72.461Z" fill="white"/>
<path id="Vector_63" opacity="0.81" d="M13.7408 72.5106C13.4558 72.8125 14.6126 73.7016 16.3896 74.2887C18.1666 74.8758 19.8933 74.9262 19.9268 74.4732C18.9495 73.8134 17.858 73.3413 16.7081 73.0809C15.4843 72.7454 13.9588 72.2757 13.7408 72.5106Z" fill="white"/>
<path id="Vector_64" opacity="0.88" d="M13.9583 72.5781C13.6901 72.8632 14.7462 73.6516 16.3723 74.2555C17.9985 74.8594 19.591 74.8427 19.6078 74.4233C19.6246 74.0039 17.7638 73.5007 16.6741 73.1987C15.5844 72.8968 14.1762 72.3264 13.9583 72.5781Z" fill="white"/>
<path id="Vector_65" opacity="0.94" d="M14.1592 72.6271C13.9245 72.929 14.88 73.6 16.3553 74.12C17.8305 74.64 19.2722 74.6568 19.289 74.2542C19.3057 73.8516 17.6126 73.4826 16.6235 73.2142C15.6344 72.9458 14.3771 72.3754 14.1592 72.6271Z" fill="white"/>
<path id="Vector_66" d="M14.3785 72.6781C14.1438 72.9968 15.0155 73.5504 16.3231 74.0368C17.6307 74.5233 18.9551 74.5233 18.9886 74.1542C19.0222 73.7852 17.4463 73.5168 16.5914 73.282C15.7364 73.0471 14.6635 72.4097 14.3785 72.6781Z" fill="white"/>
</g>
<g id="Group_3" opacity="0.2">
<path id="Vector_67" opacity="0.9" d="M53.7219 206.558L53.2023 202.548L48.4077 200.502L48.8268 206.558H53.7219Z" fill="url(#paint11_linear_646_21694)"/>
</g>
<g id="Group_4" opacity="0.2">
<path id="Vector_68" opacity="0.8" d="M48.8256 206.558L48.4065 200.502H40.6279H32.8661L32.447 206.558H48.8256Z" fill="url(#paint12_linear_646_21694)"/>
</g>
<g id="Group_5" opacity="0.2">
<path id="Vector_69" opacity="0.9" d="M32.4505 206.558L32.8696 200.502L28.0751 202.548L27.5554 206.558H32.4505Z" fill="url(#paint13_linear_646_21694)"/>
</g>
<path id="Vector_70" opacity="0.75" d="M73.8233 45.0418C76.8119 26.6995 64.3747 9.4059 46.0441 6.41538C27.7134 3.42487 10.4308 15.8699 7.44213 34.2122C4.45352 52.5545 16.8907 69.8481 35.2213 72.8386C53.552 75.8292 70.8346 63.3841 73.8233 45.0418Z" fill="url(#paint14_radial_646_21694)"/>
<path id="Vector_71" style="mix-blend-mode:hard-light" d="M40.2938 63.1509C41.8529 63.9058 47.9718 58.0346 49.5979 57.2294C51.224 56.4242 50.8888 53.7235 52.0455 52.6834C53.9511 50.3808 55.052 47.5178 55.1804 44.5309C54.9457 41.8637 57.1585 36.8481 57.1585 36.1435C57.1585 35.439 55.8845 36.0261 54.141 35.3216C52.3975 34.617 47.9718 27.1858 49.2459 26.3638C50.5199 25.5419 54.8451 29.7188 54.9457 31.1279C55.0462 32.537 54.6104 33.577 55.063 33.577C55.5156 33.577 56.3538 32.6544 57.7453 32.8725C59.1367 33.0905 59.9581 32.7718 59.8408 31.715C59.7234 30.6582 54.2583 26.2464 55.2977 25.5419C56.3371 24.8374 59.8408 26.3639 60.6455 28.1084C61.4501 29.853 61.5842 30.5575 63.7971 30.9098C66.01 31.2621 66.3453 31.715 66.2279 33.577C66.1106 35.439 67.4014 36.0261 67.7534 38.3578C68.1055 40.6895 66.5799 42.5347 67.7534 43.2393C68.9269 43.9438 73.4532 32.2853 72.7827 29.5846C71.2577 24.634 68.6044 20.1056 65.0319 16.3562C61.4594 12.6068 57.0655 9.73894 52.1963 7.97872C42.557 4.4728 36.7063 8.21356 36.589 9.48844C36.4716 10.7633 36.0022 12.3905 34.9126 12.1556C33.8229 11.9208 30.6042 11.3505 30.1515 12.1556C29.6989 12.9608 29.7995 14.2525 29.0954 14.7222C28.3913 15.1919 26.6478 13.5647 26.1952 14.6047C25.6192 16.0462 25.4173 17.6101 25.6085 19.1507C25.9605 19.8385 27.8213 20.1907 28.7434 20.4256C29.6654 20.6604 29.6821 17.9765 30.4198 17.7416C30.7886 17.641 32.6159 16.7519 34.7114 16.0641C35.8178 15.6951 38.0642 18.9158 39.1539 18.8152C40.5621 18.6642 40.8303 15.3428 41.3667 16.2487C43.3449 19.1675 43.6802 22.3044 41.3667 22.4218C39.0533 22.5392 39.5227 21.9521 38.5336 21.1469C37.5445 20.3417 32.0627 19.4694 30.5371 21.0295C29.0116 22.5895 29.263 27.0852 27.4022 28.7123C25.5414 30.3395 23.2112 28.8297 24.0494 32.5537C24.8876 36.2777 24.0494 42.4341 26.1449 42.9037C28.2404 43.3734 29.9839 42.6689 33.9402 44.7657C37.8966 46.8626 36.9242 61.5237 40.2938 63.1509Z" fill="url(#paint15_radial_646_21694)"/>
<path id="Vector_72" opacity="0.8" d="M40.6453 5.96499C40.1592 5.96499 39.6898 5.96499 39.2036 5.96499C48.0958 5.96499 56.6239 9.49966 62.9116 15.7914C69.1994 22.0832 72.7318 30.6166 72.7318 39.5145C72.7318 48.4124 69.1994 56.9458 62.9116 63.2376C56.6239 69.5293 48.0958 73.064 39.2036 73.064C39.6898 73.064 40.1592 73.064 40.6453 73.064C49.5642 73.064 58.1179 69.5187 64.4245 63.2081C70.7311 56.8975 74.2741 48.3384 74.2741 39.4138C74.2741 30.4893 70.7311 21.9302 64.4245 15.6196C58.1179 9.30895 49.5642 5.76367 40.6453 5.76367V5.96499Z" fill="url(#paint16_linear_646_21694)"/>
<g id="Vector_73" style="mix-blend-mode:multiply" opacity="0.3">
<path d="M41.6508 69.4909C32.776 69.4643 24.2738 65.9179 18.0077 59.629C11.7417 53.3401 8.22311 44.8219 8.22315 35.9414C8.22369 33.5553 8.48225 31.1762 8.9943 28.8457C7.88033 32.2113 7.3143 35.7342 7.31789 39.2796C7.31055 47.5382 10.3567 55.5075 15.87 61.6532C21.3832 67.7989 28.9736 71.6864 37.1799 72.5674C45.3861 73.4483 53.628 71.2603 60.3185 66.4246C67.009 61.5889 71.6753 54.4475 73.4188 46.3753C71.2391 53.09 66.9921 58.9424 61.2857 63.0946C55.5794 67.2468 48.7063 69.4857 41.6508 69.4909Z" fill="#657D8D"/>
</g>
<g id="Group_6" style="mix-blend-mode:soft-light">
<path id="Vector_74" d="M58.4662 29.9198C57.328 28.8298 56.29 27.6395 55.3649 26.3635C55.0702 26.3215 54.771 26.3215 54.4764 26.3635L51.1235 26.7997C52.7999 27.8565 54.9458 30.1546 55.0128 31.1443C55.1302 32.5534 54.6775 33.5935 55.1302 33.5935C55.5828 33.5935 56.421 32.6708 57.8124 32.8889C58.179 32.9459 58.5522 32.9459 58.9188 32.8889L58.4662 29.9198Z" fill="white"/>
</g>
<g id="Group_7" style="mix-blend-mode:overlay">
<path id="Vector_75" opacity="0.05" d="M67.3662 25.8754C69.512 33.1556 65.2036 43.2708 60.2917 44.8476C55.3798 46.4245 43.0247 40.0668 42.2032 33.2898C41.3818 26.5128 45.0364 15.3409 49.7806 12.6904C52.6976 11.0968 65.2036 18.6119 67.3662 25.8754Z" fill="#D1CAC2"/>
<path id="Vector_76" opacity="0.1" d="M67.0506 25.9764C69.1294 32.9882 64.9551 42.7511 60.2108 44.2944C55.4666 45.8377 43.4467 39.7484 42.6756 33.2063C41.9044 26.6641 45.2908 15.7605 49.9847 13.2108C52.9017 11.6339 64.9551 18.9477 67.0506 25.9764Z" fill="#D3CCC5"/>
<path id="Vector_77" opacity="0.14" d="M66.746 26.0431C68.7409 32.753 64.7176 42.2139 60.0404 43.7237C55.3632 45.2334 43.9803 39.3958 43.1589 33.0885C42.3375 26.7812 45.5897 16.146 50.1998 13.7136C53.1 12.1536 64.7343 19.2661 66.746 26.0431Z" fill="#D5CEC7"/>
<path id="Vector_78" opacity="0.19" d="M66.4285 26.1269C68.3396 32.5684 64.4671 41.6771 60.0079 43.1365C55.5486 44.5959 44.4508 39.0435 43.5958 32.971C42.7408 26.8986 45.8087 16.5318 50.3014 14.2001C53.3022 12.6903 64.5006 19.6015 66.4285 26.1269Z" fill="#D6D1CA"/>
<path id="Vector_79" opacity="0.24" d="M66.1277 26.1957C67.955 32.352 64.2334 41.1252 59.9082 42.5678C55.5831 44.0104 44.9211 38.7096 44.0494 32.8552C43.1776 27.0008 46.0611 16.9192 50.5371 14.7049C53.5043 13.2288 64.2669 19.9219 66.1277 26.1957Z" fill="#D8D3CC"/>
<path id="Vector_80" opacity="0.29" d="M65.8078 26.2627C67.4842 32.1507 63.9805 40.5884 59.823 41.9807C55.6655 43.373 45.3891 38.3573 44.5006 32.721C43.6121 27.0847 46.3279 17.305 50.7201 15.1914C53.7041 13.7655 64.0308 20.2574 65.8078 26.2627Z" fill="#DAD5CF"/>
<path id="Vector_81" opacity="0.33" d="M65.5087 26.3289C67.1852 31.9316 63.8323 40.0338 59.7251 41.4261C55.6179 42.8184 45.8612 38.0712 44.9727 32.6362C44.0842 27.2011 46.6491 17.7234 50.924 15.7104C53.908 14.3014 63.7988 20.5751 65.5087 26.3289Z" fill="#DCD7D1"/>
<path id="Vector_82" opacity="0.38" d="M65.1878 26.3965C66.8643 31.7309 63.5114 39.4808 59.6222 40.8228C55.7329 42.1648 46.3282 37.6524 45.423 32.4354C44.5177 27.2185 46.8479 18.0427 51.106 16.1304C54.1068 14.8219 63.5617 20.8441 65.1878 26.3965Z" fill="#DED9D3"/>
<path id="Vector_83" opacity="0.43" d="M64.9529 26.4622C66.4617 31.4946 63.2765 38.9426 59.5884 40.2342C55.9003 41.5259 46.8644 37.2987 45.9424 32.3669C45.0204 27.4351 47.1662 18.4774 51.3572 16.6657C54.3077 15.3573 63.2765 21.2285 64.9529 26.4622Z" fill="#E0DBD6"/>
<path id="Vector_84" opacity="0.48" d="M64.5657 26.5297C66.0074 31.3105 63.0066 38.3894 59.4359 39.6643C55.8651 40.9392 47.2651 36.9468 46.3431 32.2498C45.4211 27.5529 47.3657 18.83 51.4729 17.1526C54.524 15.8945 63.0905 21.5476 64.5657 26.5297Z" fill="#E2DDD8"/>
<path id="Vector_85" opacity="0.52" d="M64.2653 26.598C65.6065 31.1104 62.7733 37.8539 59.3367 39.0784C55.9001 40.303 47.7359 36.5958 46.7971 32.1169C45.8583 27.6381 47.6353 19.2675 51.6587 17.6571C54.7266 16.4325 62.8572 21.8843 64.2653 26.598Z" fill="#E3E0DB"/>
<path id="Vector_86" opacity="0.57" d="M63.949 26.6649C65.223 30.8921 62.524 37.3001 59.2382 38.4911C55.9525 39.6821 48.2075 36.2433 47.2519 31.9993C46.2964 27.7553 47.8889 19.6698 51.8453 18.1601C54.8963 16.9691 62.6078 22.2028 63.949 26.6649Z" fill="#E5E2DD"/>
<path id="Vector_87" opacity="0.62" d="M63.6447 26.7325C64.8349 30.6913 62.2868 36.7973 59.1351 37.9213C55.9834 39.0452 48.6743 35.8915 47.7187 31.8824C46.7632 27.8732 48.1546 20.14 52.0439 18.6471C55.1285 17.4896 62.3706 22.522 63.6447 26.7325Z" fill="#E7E4E0"/>
<path id="Vector_88" opacity="0.67" d="M63.2756 26.7987C64.382 30.4724 61.9847 36.2094 59.0007 37.3333C56.0167 38.4572 49.0931 35.5551 48.1208 31.7641C47.1485 27.973 48.3723 20.4747 52.1777 19.1495C55.3461 18.0591 62.1356 22.8567 63.2756 26.7987Z" fill="#E9E6E2"/>
<path id="Vector_89" opacity="0.71" d="M63.0244 26.8658C64.047 30.2207 61.8007 35.6726 58.9508 36.7629C56.1009 37.8533 49.6131 35.2029 48.6408 31.6466C47.6685 28.0904 48.6408 20.8772 52.4128 19.6359C55.5476 18.5958 61.9012 23.1921 63.0244 26.8658Z" fill="#EBE8E4"/>
<path id="Vector_90" opacity="0.76" d="M62.7063 26.9325C63.6618 30.0526 61.5495 35.1186 58.8505 36.1754C56.1515 37.2322 50.0829 34.8502 49.0938 31.512C48.1047 28.1738 48.9597 21.2794 52.5975 20.1387C55.7492 19.1658 61.5998 23.5104 62.7063 26.9325Z" fill="#EDEAE7"/>
<path id="Vector_91" opacity="0.81" d="M62.4037 27.0001C63.2587 29.8518 61.3141 34.5823 58.7492 35.5887C56.1842 36.5952 50.5515 34.4984 49.5456 31.3951C48.5398 28.2917 49.2104 21.6825 52.7811 20.6257C55.9663 19.6863 61.4314 23.8297 62.4037 27.0001Z" fill="#EFECE9"/>
<path id="Vector_92" opacity="0.86" d="M62.0861 27.0682C62.874 29.6515 61.0635 34.0297 58.6495 35.0194C56.2355 36.0091 51.0218 34.1471 50.016 31.2786C49.0101 28.4101 49.4795 22.0861 52.9665 21.1131C56.1684 20.2408 61.1976 24.1997 62.0861 27.0682Z" fill="#F0EFEC"/>
<path id="Vector_93" opacity="0.9" d="M61.7868 27.1347C62.0406 28.5336 61.8696 29.9765 61.2959 31.2772C60.7222 32.5779 59.772 33.6766 58.5681 34.4317C56.2882 35.3879 51.4937 33.7943 50.4711 31.1606C49.4484 28.527 49.7502 22.5216 53.2204 21.6158C56.6905 20.71 60.9654 24.4843 61.7868 27.1347Z" fill="#F2F1EE"/>
<path id="Vector_94" opacity="0.95" d="M61.4702 27.2191C61.6993 28.5096 61.5357 29.8392 61.0007 31.0356C60.4656 32.232 59.5838 33.24 58.4694 33.929C56.3403 34.8348 51.9649 33.5096 50.9255 31.1108C49.8862 28.712 50.0203 22.975 53.3563 22.1698C56.6924 21.3647 60.7325 24.8203 61.4702 27.2191Z" fill="#F4F3F1"/>
<path id="Vector_95" d="M61.1634 27.2844C61.3335 28.4472 61.1589 29.6344 60.6613 30.6989C60.1636 31.7634 59.3648 32.6584 58.3638 33.273C56.3856 34.1453 52.4293 33.0885 51.3899 30.9077C50.3505 28.727 50.2835 23.3088 53.5357 22.6042C56.7879 21.8997 60.4928 25.1372 61.1634 27.2844Z" fill="#F6F5F3"/>
</g>
<g id="Group_8" style="mix-blend-mode:overlay">
<path id="Vector_96" opacity="0.06" d="M9.63022 44.0952C8.32262 43.961 8.27233 53.3548 14.9612 60.6183C22.8068 69.1231 29.2275 70.6832 29.5125 69.9451C29.7974 69.207 24.4832 61.759 19.5881 56.324C14.693 50.8889 10.5522 44.1958 9.63022 44.0952Z" fill="white"/>
<path id="Vector_97" opacity="0.13" d="M9.81488 44.6981C8.52405 44.5975 8.55757 53.5384 14.9447 60.4999C22.4383 68.6692 28.6074 70.1789 28.9092 69.4912C29.211 68.8034 23.9806 61.607 19.3872 56.4069C14.7938 51.2067 10.7704 44.782 9.81488 44.6981Z" fill="white"/>
<path id="Vector_98" opacity="0.19" d="M10.0352 45.3184C8.77792 45.3184 8.87851 53.7057 14.9639 60.4156C22.0886 68.2327 28.0231 69.7424 28.3752 69.0547C28.7272 68.3669 23.6142 61.4557 19.2387 56.5239C14.8633 51.5921 10.974 45.3687 10.0352 45.3184Z" fill="white"/>
<path id="Vector_99" opacity="0.25" d="M10.235 46.0059C9.01122 46.0059 9.17886 53.9739 14.9792 60.3818C21.6849 67.8298 27.4182 69.3563 27.7535 68.6518C28.0888 67.9472 23.1936 61.3715 19.0194 56.6746C14.8451 51.9777 11.1738 46.0059 10.235 46.0059Z" fill="white"/>
<path id="Vector_100" opacity="0.31" d="M10.454 46.5273C9.24701 46.5273 9.49847 54.076 14.9971 60.182C21.401 67.2945 26.8326 68.821 27.1846 68.1164C27.5367 67.4119 22.7924 61.1382 18.8026 56.6928C14.8127 52.2475 11.3928 46.5273 10.454 46.5273Z" fill="white"/>
<path id="Vector_101" opacity="0.38" d="M10.67 47.1309C9.4965 47.1309 9.81501 54.2434 15.0119 60.081C21.047 66.7909 26.2438 68.3677 26.6126 67.6632C26.9815 66.9587 22.3881 60.9533 18.6665 56.7764C14.9448 52.5995 11.592 47.1141 10.67 47.1309Z" fill="white"/>
<path id="Vector_102" opacity="0.44" d="M10.8906 47.6836C9.73385 47.6836 10.1362 54.3935 15.0313 59.8956C20.7143 66.3203 25.6598 67.8468 26.0453 67.1255C26.4309 66.4042 22.0052 60.7679 18.4847 56.8091C14.9643 52.8502 11.8126 47.6836 10.8906 47.6836Z" fill="white"/>
<path id="Vector_103" opacity="0.5" d="M11.1055 48.3546C9.96554 48.4552 10.4517 54.6115 15.0451 59.862C20.3593 65.9177 25.1035 67.461 25.4723 66.7397C25.8412 66.0184 21.5998 60.684 18.3141 56.96C15.0283 53.236 12.0108 48.2707 11.1055 48.3546Z" fill="white"/>
<path id="Vector_104" opacity="0.56" d="M11.3094 48.9586C10.203 49.0928 10.7562 54.7795 15.0478 59.7616C20.077 65.465 24.4525 67.0082 24.8883 66.2869C25.3242 65.5656 21.1835 60.5332 18.1827 57.0608C15.1819 53.5884 12.2147 48.858 11.3094 48.9586Z" fill="white"/>
<path id="Vector_105" opacity="0.63" d="M11.5453 49.5791C10.4556 49.7301 11.0927 54.9638 15.0825 59.644C19.6759 65.0119 23.8837 66.5552 24.3363 65.8339C24.7889 65.1125 20.8158 60.3653 17.9492 57.1445C15.0825 53.9238 12.4338 49.4449 11.5453 49.5791Z" fill="white"/>
<path id="Vector_106" opacity="0.69" d="M11.7606 50.1836C10.6877 50.3681 11.4085 55.216 15.1134 59.5439C19.3379 64.5763 23.2775 66.1028 23.7637 65.3647C24.2498 64.6266 20.4109 60.2149 17.7789 57.2458C15.1469 54.2766 12.6323 50.0326 11.7606 50.1836Z" fill="white"/>
<path id="Vector_107" opacity="0.75" d="M11.978 50.7874C10.9387 51.0055 11.7266 55.3166 15.1297 59.4432C18.9854 64.0898 22.6903 65.6499 23.1765 64.9118C23.6626 64.1737 20.008 60.0639 17.594 57.3296C15.18 54.5953 12.8498 50.6029 11.978 50.7874Z" fill="white"/>
<path id="Vector_108" opacity="0.81" d="M12.1949 51.3906C11.1723 51.659 12.0273 55.5004 15.1454 59.325C18.6323 63.6361 22.1025 65.1962 22.6054 64.4581C23.1083 63.72 19.6214 59.9121 17.4085 57.4295C15.1957 54.9468 12.9828 51.1893 12.1949 51.3906Z" fill="white"/>
<path id="Vector_109" opacity="0.88" d="M12.414 52.0128C11.4081 52.298 12.414 55.6697 15.1633 59.226C18.2982 63.168 21.5001 64.7449 22.0366 63.99C22.573 63.2351 19.2202 59.7628 17.242 57.5149C15.2639 55.2671 13.2522 51.7612 12.414 52.0128Z" fill="white"/>
<path id="Vector_110" opacity="0.94" d="M12.6309 52.6151C11.6585 52.9339 12.6308 55.8527 15.179 59.1238C17.9451 62.7136 20.9123 64.2904 21.4655 63.5355C22.0187 62.7806 18.8336 59.6102 17.0566 57.614C15.2796 55.6178 13.4691 52.3468 12.6309 52.6151Z" fill="white"/>
<path id="Vector_111" d="M12.8501 53.2194C11.8945 53.5716 12.9842 56.0375 15.197 59.0066C17.6111 62.261 20.3269 63.8378 20.8968 63.0829C21.4668 62.328 18.4325 59.426 16.8735 57.7485C15.3144 56.0711 13.6715 52.9342 12.8501 53.2194Z" fill="white"/>
</g>
</g>
</g>
<defs>
<linearGradient id="paint0_linear_646_21694" x1="8.89502" y1="220.247" x2="73.4704" y2="220.247" gradientUnits="userSpaceOnUse">
<stop stop-color="#455756"/>
<stop offset="1" stop-color="#001110"/>
</linearGradient>
<linearGradient id="paint1_linear_646_21694" x1="11.4761" y1="202.532" x2="70.8881" y2="202.532" gradientUnits="userSpaceOnUse">
<stop stop-color="#001110"/>
<stop offset="1" stop-color="#455756"/>
</linearGradient>
<linearGradient id="paint2_linear_646_21694" x1="5.92798" y1="219.592" x2="13.6059" y2="219.592" gradientUnits="userSpaceOnUse">
<stop stop-color="#455756"/>
<stop offset="1" stop-color="#001110"/>
</linearGradient>
<linearGradient id="paint3_linear_646_21694" x1="76.4372" y1="219.609" x2="68.776" y2="219.609" gradientUnits="userSpaceOnUse">
<stop stop-color="#001110"/>
<stop offset="1" stop-color="#455756"/>
</linearGradient>
<linearGradient id="paint4_linear_646_21694" x1="12.1816" y1="71.9731" x2="127.049" y2="71.9731" gradientUnits="userSpaceOnUse">
<stop stop-color="#001110"/>
<stop offset="0.09" stop-color="#122323"/>
<stop offset="0.29" stop-color="#425355"/>
<stop offset="0.56" stop-color="#8F9EA4"/>
<stop offset="0.69" stop-color="#B5C4CC"/>
<stop offset="0.81" stop-color="#C1CDD3"/>
<stop offset="1" stop-color="#DBE0E2"/>
</linearGradient>
<linearGradient id="paint5_linear_646_21694" x1="23.6646" y1="140.198" x2="74.3592" y2="140.198" gradientUnits="userSpaceOnUse">
<stop stop-color="#DBE0E2"/>
<stop offset="0.17" stop-color="#CDD5DA"/>
<stop offset="0.51" stop-color="#B5C4CC"/>
<stop offset="0.62" stop-color="#C1CED4"/>
<stop offset="0.83" stop-color="#E1E7EA"/>
<stop offset="1" stop-color="white"/>
</linearGradient>
<linearGradient id="paint6_linear_646_21694" x1="10.7231" y1="135.348" x2="44.1005" y2="135.348" gradientUnits="userSpaceOnUse">
<stop stop-color="#DBE0E2"/>
<stop offset="0.28" stop-color="#D9DFE1"/>
<stop offset="0.38" stop-color="#D2DADD"/>
<stop offset="0.45" stop-color="#C7D1D6"/>
<stop offset="0.5" stop-color="#B6C5CC"/>
<stop offset="0.51" stop-color="#B5C4CC"/>
<stop offset="0.55" stop-color="#ACBCC4"/>
<stop offset="0.85" stop-color="#7B8E95"/>
<stop offset="1" stop-color="#687C83"/>
</linearGradient>
<linearGradient id="paint7_linear_646_21694" x1="70.5531" y1="135.348" x2="37.1758" y2="135.348" gradientUnits="userSpaceOnUse">
<stop stop-color="#DBE0E2"/>
<stop offset="0.28" stop-color="#D9DFE1"/>
<stop offset="0.38" stop-color="#D2DADD"/>
<stop offset="0.45" stop-color="#C7D1D6"/>
<stop offset="0.5" stop-color="#B6C5CC"/>
<stop offset="0.51" stop-color="#B5C4CC"/>
<stop offset="0.55" stop-color="#ACBCC4"/>
<stop offset="0.85" stop-color="#7B8E95"/>
<stop offset="1" stop-color="#687C83"/>
</linearGradient>
<linearGradient id="paint8_linear_646_21694" x1="10.9243" y1="138.185" x2="32.8685" y2="138.185" gradientUnits="userSpaceOnUse">
<stop stop-color="#DBE0E2"/>
<stop offset="0.19" stop-color="#C1CDD3"/>
<stop offset="0.31" stop-color="#B5C4CC"/>
<stop offset="0.44" stop-color="#8F9EA4"/>
<stop offset="0.71" stop-color="#425355"/>
<stop offset="0.91" stop-color="#122323"/>
<stop offset="1" stop-color="#001110"/>
</linearGradient>
<linearGradient id="paint9_linear_646_21694" x1="31.6436" y1="148.585" x2="79.5133" y2="129.701" gradientUnits="userSpaceOnUse">
<stop stop-color="#DBE0E2"/>
<stop offset="0.28" stop-color="#D9DFE1"/>
<stop offset="0.38" stop-color="#D2DADD"/>
<stop offset="0.45" stop-color="#C7D1D6"/>
<stop offset="0.5" stop-color="#B6C5CC"/>
<stop offset="0.51" stop-color="#B5C4CC"/>
<stop offset="0.59" stop-color="#96A9B2"/>
<stop offset="0.81" stop-color="#7B8E96"/>
<stop offset="1" stop-color="#687C83"/>
</linearGradient>
<linearGradient id="paint10_linear_646_21694" x1="28.0708" y1="202.214" x2="53.1834" y2="202.214" gradientUnits="userSpaceOnUse">
<stop stop-color="#DBE0E2"/>
<stop offset="0.19" stop-color="#C1CDD3"/>
<stop offset="0.31" stop-color="#B5C4CC"/>
<stop offset="0.44" stop-color="#8F9EA4"/>
<stop offset="0.71" stop-color="#425355"/>
<stop offset="0.91" stop-color="#122323"/>
<stop offset="1" stop-color="#001110"/>
</linearGradient>
<linearGradient id="paint11_linear_646_21694" x1="48.458" y1="204.545" x2="52.2976" y2="203.037" gradientUnits="userSpaceOnUse">
<stop stop-color="#DBE0E2"/>
<stop offset="0.28" stop-color="#D9DFE1"/>
<stop offset="0.38" stop-color="#D2DADD"/>
<stop offset="0.45" stop-color="#C7D1D6"/>
<stop offset="0.5" stop-color="#B6C5CC"/>
<stop offset="0.51" stop-color="#B5C4CC"/>
<stop offset="0.59" stop-color="#96A9B2"/>
<stop offset="0.81" stop-color="#7B8E96"/>
<stop offset="1" stop-color="#687C83"/>
</linearGradient>
<linearGradient id="paint12_linear_646_21694" x1="32.2961" y1="203.521" x2="57.2076" y2="203.521" gradientUnits="userSpaceOnUse">
<stop stop-color="#DBE0E2"/>
<stop offset="0.17" stop-color="#CDD5DA"/>
<stop offset="0.51" stop-color="#B5C4CC"/>
<stop offset="0.62" stop-color="#C1CED4"/>
<stop offset="0.83" stop-color="#E1E7EA"/>
<stop offset="1" stop-color="white"/>
</linearGradient>
<linearGradient id="paint13_linear_646_21694" x1="27.5554" y1="203.521" x2="32.8696" y2="203.521" gradientUnits="userSpaceOnUse">
<stop stop-color="#DBE0E2"/>
<stop offset="0.19" stop-color="#C1CDD3"/>
<stop offset="0.31" stop-color="#B5C4CC"/>
<stop offset="0.44" stop-color="#8F9EA4"/>
<stop offset="0.71" stop-color="#425355"/>
<stop offset="0.91" stop-color="#122323"/>
<stop offset="1" stop-color="#001110"/>
</linearGradient>
<radialGradient id="paint14_radial_646_21694" cx="0" cy="0" r="1" gradientUnits="userSpaceOnUse" gradientTransform="translate(49.1346 26.8816) scale(45.4978 45.5267)">
<stop stop-color="white"/>
<stop offset="0.11" stop-color="#E9EDEF"/>
<stop offset="0.24" stop-color="#D4DCE1"/>
<stop offset="0.38" stop-color="#C7D2D8"/>
<stop offset="0.51" stop-color="#C3CFD5"/>
<stop offset="0.52" stop-color="#BFCBD1"/>
<stop offset="0.74" stop-color="#90A0A7"/>
<stop offset="0.91" stop-color="#73868D"/>
<stop offset="1" stop-color="#687C83"/>
</radialGradient>
<radialGradient id="paint15_radial_646_21694" cx="0" cy="0" r="1" gradientUnits="userSpaceOnUse" gradientTransform="translate(48.3909 34.8854) scale(26.4538 26.4706)">
<stop stop-color="white"/>
<stop offset="0.56" stop-color="#DFE5E9"/>
<stop offset="1" stop-color="#C3CFD5"/>
</radialGradient>
<linearGradient id="paint16_linear_646_21694" x1="39.2036" y1="39.6151" x2="74.2741" y2="39.6151" gradientUnits="userSpaceOnUse">
<stop stop-color="#DBE0E2"/>
<stop offset="0.17" stop-color="#CDD5DA"/>
<stop offset="0.51" stop-color="#B5C4CC"/>
<stop offset="0.62" stop-color="#C1CED4"/>
<stop offset="0.83" stop-color="#E1E7EA"/>
<stop offset="1" stop-color="white"/>
</linearGradient>
</defs>
</svg>
