<svg width="200" height="228" viewBox="0 0 200 228" fill="none" xmlns="http://www.w3.org/2000/svg">
<g id="Frame 20152">
<g id="Group 8">
<g id="Vector" style="mix-blend-mode:multiply" opacity="0.05">
<path d="M198.358 223.354C197.876 226.249 176.928 227.768 98.4761 227.768C25.8995 227.571 1.12991 226.856 1.32635 223.336C2.18356 207.932 54.6158 194.977 98.4403 194.977C142.265 194.977 200.037 213.633 198.358 223.354Z" fill="#FAFBFB"/>
</g>
<g id="Vector_2" style="mix-blend-mode:multiply" opacity="0.1">
<path d="M197.573 223.211C197.108 226.088 176.571 227.518 98.6194 227.518C26.4714 227.339 1.79113 226.696 1.96971 223.175C2.7912 208.29 54.9913 195.674 98.5301 195.674C142.069 195.674 199.144 213.74 197.573 223.211Z" fill="#F6F8F8"/>
</g>
<g id="Vector_3" style="mix-blend-mode:multiply" opacity="0.14">
<path d="M196.787 223.086C196.341 225.946 176.25 227.286 98.7627 227.286C27.0433 227.107 2.32729 226.535 2.59517 223.033C3.34522 208.648 55.3489 196.371 98.6377 196.371C141.926 196.371 198.252 213.848 196.787 223.086Z" fill="#F1F4F4"/>
</g>
<g id="Vector_4" style="mix-blend-mode:multiply" opacity="0.19">
<path d="M196.001 222.961C195.573 225.803 175.928 227.054 98.905 227.054C27.6321 226.875 3.05895 226.392 3.23754 222.908C3.93402 209.023 55.7055 197.086 98.7264 197.086C141.747 197.086 197.376 214.026 196.001 222.961Z" fill="#EDF0F0"/>
</g>
<g id="Vector_5" style="mix-blend-mode:multiply" opacity="0.24">
<path d="M195.215 222.818C194.804 225.624 175.571 226.803 99.0652 226.803C28.203 226.624 3.70129 226.195 3.87987 222.729C4.52278 209.38 56.0621 197.711 98.833 197.711C141.604 197.711 196.501 214.026 195.215 222.818Z" fill="#E8ECEC"/>
</g>
<g id="Vector_6" style="mix-blend-mode:multiply" opacity="0.29">
<path d="M194.43 222.674C194.037 225.462 175.267 226.57 99.2085 226.57C28.7929 226.391 4.34471 226.034 4.55901 222.585C5.1662 209.737 56.4912 198.461 98.9764 198.461C141.462 198.461 195.608 214.168 194.43 222.674Z" fill="#E4E9E9"/>
</g>
<g id="Vector_7" style="mix-blend-mode:multiply" opacity="0.33">
<path d="M193.661 222.549C193.286 225.301 174.964 226.32 99.3689 226.32C29.3818 226.141 5.0051 225.873 5.16583 222.424C5.71944 210.094 56.8123 199.193 99.0475 199.193C141.283 199.193 194.733 214.275 193.661 222.549Z" fill="#DFE5E5"/>
</g>
<g id="Vector_8" style="mix-blend-mode:multiply" opacity="0.38">
<path d="M192.858 222.407C192.518 225.141 174.624 226.088 99.4939 226.088C29.9533 225.91 5.6301 225.695 5.79083 222.282C6.29086 210.452 57.1516 199.855 99.1367 199.855C141.122 199.855 193.858 214.384 192.858 222.407Z" fill="#DAE1E1"/>
</g>
<g id="Vector_9" style="mix-blend-mode:multiply" opacity="0.43">
<path d="M192.073 222.282C191.751 224.98 174.304 225.856 99.6375 225.856C30.5255 225.695 6.27378 225.552 6.41664 222.139C6.88096 210.845 57.5095 200.57 99.2803 200.57C141.051 200.57 192.983 214.491 192.073 222.282Z" fill="#D6DEDE"/>
</g>
<g id="Vector_10" style="mix-blend-mode:multiply" opacity="0.48">
<path d="M191.287 222.139C190.983 224.819 173.964 225.606 99.7801 225.606C31.0966 225.427 6.91636 225.373 7.05922 222.032C7.46997 211.31 57.8842 201.303 99.3336 201.303C140.783 201.303 192.108 214.598 191.287 222.139Z" fill="#D1DADA"/>
</g>
<g id="Vector_11" style="mix-blend-mode:multiply" opacity="0.52">
<path d="M190.483 222.014C190.215 224.658 173.642 225.373 99.9226 225.373C31.6856 225.194 7.5768 225.212 7.68395 221.799C8.05898 211.506 58.2411 201.91 99.4226 201.91C140.604 201.91 191.25 214.705 190.483 222.014Z" fill="#CDD6D6"/>
</g>
<g id="Vector_12" style="mix-blend-mode:multiply" opacity="0.57">
<path d="M189.697 221.871C189.447 224.498 173.321 225.123 100.066 225.123C32.2039 224.962 8.22011 225.123 8.32726 221.674C8.64871 211.899 58.5986 202.643 99.5301 202.643C140.462 202.643 190.376 214.812 189.697 221.871Z" fill="#C8D2D2"/>
</g>
<g id="Vector_13" style="mix-blend-mode:multiply" opacity="0.62">
<path d="M188.912 221.746C188.698 224.355 173 224.891 100.21 224.891C32.8477 224.712 8.86391 224.891 8.97106 221.531C9.25679 212.275 58.9746 203.34 99.6203 203.34C140.266 203.34 189.502 214.919 188.912 221.746Z" fill="#C4CFCF"/>
</g>
<g id="Vector_14" style="mix-blend-mode:multiply" opacity="0.67">
<path d="M188.125 221.603C187.929 224.194 172.678 224.641 100.351 224.641C33.4181 224.48 9.50568 224.641 9.59498 221.371C9.84499 212.632 59.3306 204.037 99.7263 204.037C140.122 204.037 188.643 215.027 188.125 221.603Z" fill="#BFCBCB"/>
</g>
<g id="Vector_15" style="mix-blend-mode:multiply" opacity="0.71">
<path d="M187.339 221.478C187.16 224.034 172.356 224.409 100.512 224.409C34.0068 224.248 10.148 224.534 10.2373 221.228C10.4516 212.99 59.6872 204.734 99.8151 204.734C139.943 204.734 187.768 215.135 187.339 221.478Z" fill="#BAC7C7"/>
</g>
<g id="Vector_16" style="mix-blend-mode:multiply" opacity="0.76">
<path d="M186.519 221.336C186.376 223.873 171.982 224.177 100.62 224.177C34.5435 223.998 10.7561 224.374 10.8276 221.086C11.0061 213.366 60.0096 205.432 99.8874 205.432C139.765 205.432 186.911 215.242 186.519 221.336Z" fill="#B6C4C4"/>
</g>
<g id="Vector_17" style="mix-blend-mode:multiply" opacity="0.81">
<path d="M185.769 221.174C185.644 223.676 171.696 223.89 100.799 223.89C35.1511 223.729 11.5066 224.176 11.5066 220.888C11.6495 213.74 60.4029 206.092 100.031 206.092C139.658 206.092 186.055 215.348 185.769 221.174Z" fill="#B1C0C0"/>
</g>
<g id="Vector_18" style="mix-blend-mode:multiply" opacity="0.86">
<path d="M184.983 221.066C184.894 223.55 171.375 223.693 100.941 223.693C35.7405 223.515 12.0959 224.051 12.1495 220.78C12.2567 214.079 60.7601 206.824 100.12 206.824C139.48 206.824 185.18 215.473 184.983 221.066Z" fill="#ADBCBC"/>
</g>
<g id="Vector_19" style="mix-blend-mode:multiply" opacity="0.9">
<path d="M184.196 220.942C184.196 223.39 171.053 223.443 101.083 223.443C36.3108 223.283 12.7378 223.872 12.7735 220.62C12.7735 214.455 61.134 207.521 100.28 207.521C139.425 207.521 184.321 215.581 184.196 220.942Z" fill="#A8B8B8"/>
</g>
<g id="Vector_20" style="mix-blend-mode:multiply" opacity="0.95">
<path d="M183.411 220.799C183.411 223.229 170.731 223.211 101.262 223.211C36.9717 223.051 13.4343 223.712 13.4522 220.477C13.4522 214.813 61.527 208.219 100.351 208.219C139.175 208.219 183.464 215.688 183.411 220.799Z" fill="#A4B5B5"/>
</g>
<g id="Vector_21" style="mix-blend-mode:multiply">
<path d="M182.625 220.674C182.625 223.069 170.392 222.962 101.369 222.962C37.472 222.801 14.0417 223.551 14.0596 220.317C14.0596 215.17 61.8487 208.916 100.423 208.916C138.997 208.916 182.625 215.814 182.625 220.674Z" fill="#9FB1B1"/>
</g>
<path id="Vector_22" opacity="0.8" d="M165.498 194.227H32.2745L14.5947 210.702H183.178L165.498 194.227Z" fill="url(#paint0_linear_646_21826)"/>
<path id="Vector_23" d="M158.409 195.227H39.3467V206.181H158.409V195.227Z" fill="url(#paint1_linear_646_21826)"/>
<path id="Vector_24" d="M145.926 184.076H51.8476L39.3467 195.227H158.426L145.926 184.076Z" fill="url(#paint2_linear_646_21826)"/>
<path id="Vector_25" style="mix-blend-mode:multiply" opacity="0.7" d="M158.409 206.164H39.3467V217.762H158.409V206.164Z" fill="url(#paint3_linear_646_21826)"/>
<path id="Vector_26" opacity="0.8" d="M183.178 210.684H14.5947V221.638H183.178V210.684Z" fill="url(#paint4_linear_646_21826)"/>
<path id="Vector_27" opacity="0.1" d="M32.2745 194.227V205.091L14.5947 221.639V210.702L32.2745 194.227Z" fill="url(#paint5_linear_646_21826)"/>
<path id="Vector_28" opacity="0.1" d="M165.5 194.227V204.198L183.18 221.639V210.702L165.5 194.227Z" fill="url(#paint6_linear_646_21826)"/>
<path id="Vector_29" style="mix-blend-mode:soft-light" d="M14.5947 210.703H183.196V221.639C183.196 221.639 182.017 216.636 175.517 216.171C169.016 215.707 19.7201 214.027 18.1307 214.027C16.5413 214.027 14.5947 212.615 14.5947 210.703Z" fill="url(#paint7_linear_646_21826)"/>
<g id="Group" style="mix-blend-mode:overlay">
<path id="Vector_30" opacity="0.06" d="M98.744 195.011C96.9582 195.119 107.423 195.583 122.996 195.53C141.301 195.53 152.944 195.297 152.676 195.047C152.408 194.797 135.639 194.6 124.228 194.618C112.816 194.636 100.066 194.94 98.744 195.011Z" fill="white"/>
<path id="Vector_31" opacity="0.13" d="M99.6735 195.011C97.8877 195.118 107.978 195.547 122.889 195.512C140.391 195.512 151.57 195.279 151.338 195.047C151.106 194.815 134.98 194.618 124.086 194.636C113.192 194.654 100.959 194.94 99.6735 195.011Z" fill="white"/>
<path id="Vector_32" opacity="0.19" d="M100.602 195.011C98.9228 195.118 108.513 195.529 122.764 195.493C139.461 195.493 150.212 195.279 149.98 195.047C149.748 194.814 134.336 194.653 123.942 194.671C113.549 194.689 101.852 194.921 100.602 195.011Z" fill="white"/>
<path id="Vector_33" opacity="0.25" d="M101.53 195.012C99.9054 195.12 109.049 195.495 122.657 195.477C138.533 195.477 148.837 195.263 148.641 195.048C148.445 194.834 133.676 194.673 123.8 194.691C113.924 194.709 102.745 194.923 101.53 195.012Z" fill="white"/>
<path id="Vector_34" opacity="0.31" d="M102.459 195.012C100.905 195.119 109.602 195.477 122.549 195.441C137.622 195.441 147.551 195.244 147.301 195.048C147.051 194.851 133.014 194.691 123.657 194.708C114.299 194.726 103.637 194.923 102.459 195.012Z" fill="white"/>
<path id="Vector_35" opacity="0.38" d="M103.388 195.012C101.888 195.102 110.138 195.441 122.425 195.423C136.711 195.423 146.123 195.245 145.944 195.03C145.766 194.816 132.372 194.727 123.532 194.727C114.692 194.727 104.513 194.923 103.388 195.012Z" fill="white"/>
<path id="Vector_36" opacity="0.44" d="M104.37 194.994C110.36 195.433 116.368 195.57 122.371 195.405C135.837 195.405 144.802 195.227 144.659 195.03C144.516 194.833 131.765 194.744 123.443 194.762C115.121 194.78 105.406 194.923 104.37 194.994Z" fill="white"/>
<path id="Vector_37" opacity="0.5" d="M105.227 194.994C103.87 195.102 111.228 195.388 122.193 195.388C134.855 195.388 143.391 195.227 143.266 195.03C143.141 194.834 131.069 194.762 123.247 194.78C115.425 194.798 106.299 194.905 105.227 194.994Z" fill="white"/>
<path id="Vector_38" opacity="0.56" d="M106.156 194.993C111.456 195.388 116.773 195.507 122.086 195.351C133.944 195.351 142.016 195.208 141.909 195.029C141.802 194.85 130.408 194.797 123.104 194.797C115.8 194.797 107.192 194.904 106.156 194.993Z" fill="white"/>
<path id="Vector_39" opacity="0.63" d="M107.084 194.993C112.034 195.361 116.999 195.474 121.96 195.333C133.014 195.333 140.658 195.19 140.568 195.029C140.479 194.868 129.746 194.814 122.978 194.814C116.21 194.814 108.084 194.904 107.084 194.993Z" fill="white"/>
<path id="Vector_40" opacity="0.69" d="M107.94 194.994C112.545 195.348 117.165 195.455 121.781 195.316C132.031 195.316 139.228 195.173 139.139 195.03C139.05 194.887 129.031 194.833 122.763 194.851C116.495 194.869 108.976 194.905 107.94 194.994Z" fill="white"/>
<path id="Vector_41" opacity="0.75" d="M108.941 194.994C113.201 195.322 117.475 195.424 121.746 195.298C131.175 195.298 137.943 195.173 137.818 195.012C137.693 194.851 128.389 194.851 122.639 194.869C116.888 194.887 109.852 194.905 108.941 194.994Z" fill="white"/>
<path id="Vector_42" opacity="0.81" d="M109.87 194.995C113.779 195.306 117.702 195.396 121.621 195.263C130.264 195.263 136.568 195.155 136.533 195.012C136.497 194.87 127.782 194.887 122.55 194.887C117.317 194.887 110.745 194.887 109.87 194.995Z" fill="white"/>
<path id="Vector_43" opacity="0.88" d="M110.798 194.976C114.361 195.291 117.939 195.38 121.513 195.244C129.335 195.244 135.211 195.137 135.175 195.012C135.139 194.887 127.139 194.905 122.424 194.923C117.709 194.941 111.637 194.887 110.798 194.976Z" fill="white"/>
<path id="Vector_44" opacity="0.94" d="M111.727 194.976C114.938 195.265 118.165 195.348 121.388 195.226C128.424 195.226 133.889 195.119 133.889 195.011C133.889 194.904 126.531 194.922 122.334 195.011C118.138 195.101 112.53 194.886 111.727 194.976Z" fill="white"/>
<path id="Vector_45" d="M112.656 194.976C115.523 195.239 118.404 195.316 121.282 195.208C127.496 195.208 132.497 195.118 132.497 195.011C132.497 194.904 125.818 195.011 122.139 195.011C118.46 195.011 113.424 194.886 112.656 194.976Z" fill="white"/>
</g>
<g id="Group_2" style="mix-blend-mode:overlay">
<path id="Vector_46" opacity="0.06" d="M100.798 210.631C99.0126 210.738 109.495 211.202 125.068 211.149C143.355 211.149 154.999 210.916 154.731 210.666C154.463 210.416 137.694 210.22 126.282 210.237C114.871 210.255 102.066 210.559 100.798 210.631Z" fill="white"/>
<path id="Vector_47" opacity="0.13" d="M101.656 210.63C99.8701 210.738 109.96 211.166 124.872 211.131C142.373 211.131 153.57 210.898 153.32 210.666C153.07 210.434 136.98 210.237 126.068 210.255C115.157 210.273 102.942 210.559 101.656 210.63Z" fill="white"/>
<path id="Vector_48" opacity="0.19" d="M102.584 210.63C100.924 210.737 110.496 211.148 124.765 211.112C141.444 211.112 152.195 210.898 151.981 210.666C151.766 210.433 136.319 210.273 125.925 210.29C115.532 210.308 103.834 210.541 102.584 210.63Z" fill="white"/>
<path id="Vector_49" opacity="0.25" d="M103.514 210.632C101.907 210.739 111.05 211.114 124.64 211.096C140.534 211.096 150.839 210.882 150.624 210.667C150.41 210.453 135.677 210.292 125.801 210.31C115.926 210.328 104.728 210.542 103.514 210.632Z" fill="white"/>
<path id="Vector_50" opacity="0.31" d="M104.37 210.631C102.816 210.739 111.513 211.096 124.461 211.06C139.533 211.06 149.462 210.882 149.212 210.667C148.962 210.453 134.926 210.31 125.586 210.328C116.246 210.346 105.62 210.542 104.37 210.631Z" fill="white"/>
<path id="Vector_51" opacity="0.38" d="M105.37 210.632C103.888 210.632 112.139 211.06 124.425 211.043C138.712 211.043 148.105 210.864 147.945 210.649C147.784 210.435 134.354 210.346 125.514 210.346C116.675 210.346 106.513 210.542 105.37 210.632Z" fill="white"/>
<path id="Vector_52" opacity="0.44" d="M106.299 210.613C104.87 210.721 112.674 211.042 124.3 211.024C137.766 211.024 146.748 210.846 146.588 210.649C146.427 210.453 133.712 210.363 125.372 210.381C117.032 210.399 107.406 210.542 106.299 210.613Z" fill="white"/>
<path id="Vector_53" opacity="0.5" d="M107.227 210.614C105.851 210.721 113.209 211.007 124.192 211.007C136.854 211.007 145.372 210.846 145.247 210.649C145.122 210.453 133.05 210.381 125.246 210.399C117.442 210.417 108.28 210.453 107.227 210.614Z" fill="white"/>
<path id="Vector_54" opacity="0.56" d="M108.156 210.613C113.45 211.007 118.762 211.127 124.068 210.97C135.926 210.97 144.016 210.827 143.909 210.648C143.802 210.47 132.39 210.416 125.104 210.416C117.818 210.416 109.174 210.452 108.156 210.613Z" fill="white"/>
<path id="Vector_55" opacity="0.63" d="M109.084 210.612C114.034 210.98 118.999 211.094 123.96 210.952C135.014 210.952 142.658 210.809 142.551 210.648C142.443 210.487 131.746 210.434 124.96 210.434C118.174 210.434 110.066 210.451 109.084 210.612Z" fill="white"/>
<path id="Vector_56" opacity="0.69" d="M110.014 210.613C114.612 210.968 119.226 211.076 123.836 210.935C134.087 210.935 141.284 210.792 141.212 210.649C141.141 210.506 131.087 210.452 124.818 210.47C118.55 210.488 110.96 210.452 110.014 210.613Z" fill="white"/>
<path id="Vector_57" opacity="0.75" d="M110.942 210.613C115.196 210.942 119.464 211.043 123.729 210.917C133.176 210.917 139.926 210.792 139.801 210.631C139.676 210.47 130.354 210.488 124.622 210.488C118.889 210.488 111.853 210.452 110.942 210.613Z" fill="white"/>
<path id="Vector_58" opacity="0.81" d="M111.853 210.614C115.767 210.928 119.696 211.023 123.621 210.9C132.247 210.9 138.569 210.775 138.515 210.632C138.462 210.489 129.783 210.507 124.55 210.507C119.318 210.507 112.746 210.453 111.853 210.614Z" fill="white"/>
<path id="Vector_59" opacity="0.88" d="M112.78 210.595C116.343 210.909 119.922 210.999 123.495 210.863C131.335 210.863 137.211 210.756 137.175 210.631C137.139 210.506 129.121 210.524 124.406 210.541C119.691 210.559 113.62 210.452 112.78 210.595Z" fill="white"/>
<path id="Vector_60" opacity="0.94" d="M113.71 210.596C116.928 210.884 120.161 210.968 123.389 210.846C130.408 210.846 135.89 210.739 135.89 210.631C135.89 210.524 128.515 210.542 124.318 210.631C120.121 210.721 114.514 210.453 113.71 210.596Z" fill="white"/>
<path id="Vector_61" d="M114.638 210.594C117.506 210.857 120.387 210.934 123.264 210.827C129.497 210.827 134.479 210.827 134.479 210.63C134.479 210.434 127.818 210.63 124.121 210.63C120.425 210.63 115.406 210.452 114.638 210.594Z" fill="white"/>
</g>
<path id="Vector_62" opacity="0.2" d="M137.997 210.703C137.229 209.113 136.443 207.594 135.693 206.164H132.693C133.497 207.576 134.3 209.095 135.122 210.703H137.997Z" fill="url(#paint8_linear_646_21826)"/>
<path id="Vector_63" opacity="0.2" d="M62.6711 210.703C63.4926 209.095 64.2962 207.576 65.0998 206.164H62.0996C61.3496 207.594 60.5638 209.113 59.7959 210.703H62.6711Z" fill="url(#paint9_linear_646_21826)"/>
<path id="Vector_64" opacity="0.3" d="M63.9391 195.316C65.1738 193.325 66.5971 191.458 68.1894 189.74H124.265C126.004 191.329 127.444 193.217 128.515 195.316H132.658C129.93 191.852 126.676 188.837 123.015 186.381H69.4395C65.7785 188.837 62.5246 191.852 59.7959 195.316H63.9391Z" fill="url(#paint10_linear_646_21826)"/>
<path id="Vector_65" opacity="0.5" d="M65.6882 189.526L8.27344 0L38.6684 10.7218L158.141 95.5138V127.554L147.98 156.307L125.353 189.526H65.6882Z" fill="url(#paint11_linear_646_21826)"/>
<path id="Vector_66" opacity="0.7" d="M123.514 186.381H67.4564L65.6885 189.526H125.282L123.514 186.381Z" fill="url(#paint12_linear_646_21826)"/>
<path id="Vector_67" opacity="0.5" d="M8.27344 0L26.2569 10.5789L98.887 53.4663L38.6684 10.7218L8.27344 0Z" fill="url(#paint13_linear_646_21826)"/>
<path id="Vector_68" opacity="0.5" d="M98.8877 53.4668L149.748 98.3556L158.142 95.5143L98.8877 53.4668Z" fill="url(#paint14_linear_646_21826)"/>
<path id="Vector_69" opacity="0.8" d="M149.748 98.3552V151.303L158.142 127.554V95.5139L149.748 98.3552Z" fill="url(#paint15_linear_646_21826)"/>
<path id="Vector_70" opacity="0.8" d="M158.142 127.555L125.282 189.527L147.98 156.307L158.142 127.555Z" fill="url(#paint16_linear_646_21826)"/>
<path id="Vector_71" opacity="0.7" d="M26.2568 10.5781L93.7437 66.7963L149.748 98.3543L98.887 53.4655L26.2568 10.5781Z" fill="url(#paint17_linear_646_21826)"/>
<path id="Vector_72" opacity="0.5" d="M8.27344 0L67.4562 186.381L26.2569 10.5789L8.27344 0Z" fill="url(#paint18_linear_646_21826)"/>
<g id="Group_3">
<path id="Vector_73" d="M65.6882 189.526L26.2569 10.5789L8.27344 0L65.6882 189.526Z" fill="url(#paint19_linear_646_21826)"/>
</g>
<g id="Group_4" style="mix-blend-mode:overlay">
<path id="Vector_74" opacity="0.06" d="M45.062 26.054C43.5619 25.0533 51.241 32.237 63.3669 42.0296C77.6536 53.5198 86.815 60.6498 86.8507 60.1852C86.8507 60.0423 74.082 48.8737 65.2063 41.6722C56.3307 34.4706 46.1692 26.8045 45.062 26.054Z" fill="white"/>
<path id="Vector_75" opacity="0.13" d="M45.7763 26.6432C44.3298 25.6783 51.6874 32.5402 63.2954 41.9219C76.9035 52.9117 85.7613 59.7916 85.797 59.327C85.797 59.184 73.5461 48.48 65.0812 41.618C56.6164 34.7561 46.8657 27.358 45.7763 26.6432Z" fill="white"/>
<path id="Vector_76" opacity="0.19" d="M46.5092 27.2323C45.0984 26.3031 52.1346 32.8613 63.2247 41.814C76.2077 52.3214 84.6548 58.8975 84.7619 58.4686C84.7619 58.3435 73.0111 48.1041 64.9391 41.5638C56.8671 35.0235 47.545 27.9113 46.5092 27.2323Z" fill="white"/>
<path id="Vector_77" opacity="0.25" d="M47.2223 27.8057C45.8651 26.9122 52.5798 33.1666 63.152 41.7262C75.51 51.7154 83.6713 58.0234 83.7249 57.6303C83.7785 57.2372 72.492 47.7126 64.8129 41.5475C57.1338 35.3825 48.2403 28.4847 47.2223 27.8057Z" fill="white"/>
<path id="Vector_78" opacity="0.31" d="M47.9544 28.395C46.6329 27.5372 53.0262 33.4699 63.0805 41.6185C74.8134 51.1074 82.6176 57.1474 82.7247 56.7721C82.8319 56.3968 72.0097 47.3369 64.7234 41.4399C57.4372 35.5429 49.008 29.0383 47.9544 28.395Z" fill="white"/>
<path id="Vector_79" opacity="0.38" d="M48.6696 28.984C47.4016 28.162 53.4735 33.791 62.9563 41.4928C74.0464 50.4277 81.4933 56.2354 81.5648 55.7886C81.6362 55.3419 71.3498 46.8537 64.4921 41.2426C57.6345 35.6315 49.6339 29.5916 48.6696 28.984Z" fill="white"/>
<path id="Vector_80" opacity="0.44" d="M49.3837 29.5564C48.1694 28.788 53.9198 34.0953 62.9561 41.4219C73.4211 49.91 80.5288 55.396 80.6002 55.0565C80.6717 54.717 70.9031 46.5684 64.4205 41.3147C57.9379 36.061 50.3302 30.1461 49.3837 29.5564Z" fill="white"/>
<path id="Vector_81" opacity="0.5" d="M50.1161 30.1456C48.9374 29.413 54.3664 34.3986 62.8849 41.3321C72.7248 49.302 79.4753 54.5021 79.5646 54.2162C79.6539 53.9303 70.3675 46.1748 64.2957 41.2606C58.2238 36.3464 51.0269 30.7175 50.1161 30.1456Z" fill="white"/>
<path id="Vector_82" opacity="0.56" d="M50.7943 30.7169C49.6692 30.02 54.7767 34.7197 62.7773 41.2243C71.9922 48.7117 78.4034 53.6259 78.4926 53.3579C78.5819 53.0898 69.7956 45.799 64.2059 41.1886C58.6162 36.5782 51.7051 31.2709 50.7943 30.7169Z" fill="white"/>
<path id="Vector_83" opacity="0.63" d="M51.5621 31.3063C50.4727 30.6451 55.2588 35.0232 62.7593 41.1346C71.3313 48.1038 77.3853 52.7499 77.4746 52.4997C77.5639 52.2496 69.2955 45.3519 64.0272 41.1346C58.759 36.9174 52.4014 31.753 51.5621 31.3063Z" fill="white"/>
<path id="Vector_84" opacity="0.69" d="M52.2756 31.8976C51.2398 31.2721 55.7044 35.3286 62.687 41.029C67.0701 44.8201 71.6608 48.3639 76.438 51.6437C76.438 51.5365 68.7767 45.014 63.9371 41.0827C59.0975 37.1513 53.0971 32.3801 52.2756 31.8976Z" fill="white"/>
<path id="Vector_85" opacity="0.75" d="M52.9909 32.4677C52.0087 31.8959 56.1518 35.6485 62.6166 40.9201C66.6846 44.4528 70.954 47.7463 75.4032 50.7842C75.4032 50.677 68.2599 44.637 63.7774 41.0094C59.2949 37.3819 53.7945 32.9323 52.9909 32.4677Z" fill="white"/>
<path id="Vector_86" opacity="0.81" d="M53.7234 33.059C52.7769 32.523 56.5986 35.9539 62.5455 40.8323C66.3146 44.0792 70.2551 47.1214 74.3499 49.9459C74.3499 49.8387 67.7066 44.2455 63.6349 41.011C59.5631 37.7766 54.4914 33.5415 53.7234 33.059Z" fill="white"/>
<path id="Vector_87" opacity="0.88" d="M54.3659 33.6479C53.473 33.1297 56.9732 36.2569 62.4022 40.7958C65.855 43.7858 69.4741 46.5779 73.2422 49.1588C73.2422 49.0516 67.1168 43.9409 63.4379 40.9745C59.7591 38.0081 55.1874 34.0589 54.3659 33.6479Z" fill="white"/>
<path id="Vector_88" opacity="0.94" d="M55.1515 34.2199C54.3122 33.7553 57.491 36.5787 62.4199 40.6351C65.5431 43.3715 68.8356 45.908 72.2777 48.2298C72.2777 48.1404 66.6523 43.4764 63.3485 40.8317C60.0447 38.187 55.8837 34.613 55.1515 34.2199Z" fill="white"/>
<path id="Vector_89" d="M55.884 34.8095C55.0804 34.3806 57.9377 36.8824 62.3487 40.5279C65.173 43.0014 68.1558 45.2876 71.2779 47.3719C71.2779 47.2826 66.1526 43.1011 63.2952 40.778C60.4379 38.4549 56.5626 35.1669 55.884 34.8095Z" fill="white"/>
</g>
</g>
</g>
<defs>
<linearGradient id="paint0_linear_646_21826" x1="14.5947" y1="202.465" x2="183.178" y2="202.465" gradientUnits="userSpaceOnUse">
<stop stop-color="#687C83"/>
<stop offset="0.15" stop-color="#7B8E95"/>
<stop offset="0.45" stop-color="#ACBCC4"/>
<stop offset="0.49" stop-color="#B5C4CC"/>
<stop offset="0.5" stop-color="#B6C5CC"/>
<stop offset="0.55" stop-color="#C7D1D6"/>
<stop offset="0.62" stop-color="#D2DADD"/>
<stop offset="0.72" stop-color="#D9DFE1"/>
<stop offset="1" stop-color="#DBE0E2"/>
</linearGradient>
<linearGradient id="paint1_linear_646_21826" x1="39.3467" y1="200.695" x2="158.427" y2="200.695" gradientUnits="userSpaceOnUse">
<stop stop-color="#273C3B"/>
<stop offset="0.12" stop-color="#1D3130"/>
<stop offset="0.39" stop-color="#0D1F1E"/>
<stop offset="0.68" stop-color="#031413"/>
<stop offset="1" stop-color="#001110"/>
</linearGradient>
<linearGradient id="paint2_linear_646_21826" x1="39.3467" y1="189.652" x2="158.426" y2="189.652" gradientUnits="userSpaceOnUse">
<stop stop-color="#001110"/>
<stop offset="1" stop-color="#455756"/>
</linearGradient>
<linearGradient id="paint3_linear_646_21826" x1="98.8866" y1="206.861" x2="98.8866" y2="218.083" gradientUnits="userSpaceOnUse">
<stop stop-color="#001110"/>
<stop offset="0.06" stop-color="#122323"/>
<stop offset="0.18" stop-color="#425355"/>
<stop offset="0.35" stop-color="#8F9EA4"/>
<stop offset="0.43" stop-color="#B5C4CC"/>
<stop offset="0.48" stop-color="#BECBD2"/>
<stop offset="0.7" stop-color="#E1E7EB"/>
<stop offset="0.88" stop-color="#F7F9FA"/>
<stop offset="1" stop-color="white"/>
</linearGradient>
<linearGradient id="paint4_linear_646_21826" x1="14.5947" y1="216.17" x2="183.178" y2="216.17" gradientUnits="userSpaceOnUse">
<stop stop-color="#DBE0E2"/>
<stop offset="0.28" stop-color="#D9DFE1"/>
<stop offset="0.38" stop-color="#D2DADD"/>
<stop offset="0.45" stop-color="#C7D1D6"/>
<stop offset="0.5" stop-color="#B6C5CC"/>
<stop offset="0.51" stop-color="#B5C4CC"/>
<stop offset="0.55" stop-color="#ACBCC4"/>
<stop offset="0.85" stop-color="#7B8E95"/>
<stop offset="1" stop-color="#687C83"/>
</linearGradient>
<linearGradient id="paint5_linear_646_21826" x1="10.9873" y1="222.246" x2="32.844" y2="197.064" gradientUnits="userSpaceOnUse">
<stop stop-color="#687C83"/>
<stop offset="0.13" stop-color="#7B8D94"/>
<stop offset="0.39" stop-color="#ACBAC1"/>
<stop offset="0.49" stop-color="#C3CFD5"/>
<stop offset="0.62" stop-color="#C7D2D8"/>
<stop offset="0.76" stop-color="#D4DCE1"/>
<stop offset="0.89" stop-color="#E9EDEF"/>
<stop offset="1" stop-color="white"/>
</linearGradient>
<linearGradient id="paint6_linear_646_21826" x1="170.84" y1="211.989" x2="177.005" y2="204.881" gradientUnits="userSpaceOnUse">
<stop stop-color="#687C83"/>
<stop offset="0.13" stop-color="#7B8D94"/>
<stop offset="0.39" stop-color="#ACBAC1"/>
<stop offset="0.49" stop-color="#C3CFD5"/>
<stop offset="0.62" stop-color="#C7D2D8"/>
<stop offset="0.76" stop-color="#D4DCE1"/>
<stop offset="0.89" stop-color="#E9EDEF"/>
<stop offset="1" stop-color="white"/>
</linearGradient>
<linearGradient id="paint7_linear_646_21826" x1="58.4193" y1="262.865" x2="133.872" y2="175.94" gradientUnits="userSpaceOnUse">
<stop stop-color="#687C83"/>
<stop offset="0.13" stop-color="#7B8D94"/>
<stop offset="0.39" stop-color="#ACBAC1"/>
<stop offset="0.49" stop-color="#C3CFD5"/>
<stop offset="0.62" stop-color="#C7D2D8"/>
<stop offset="0.76" stop-color="#D4DCE1"/>
<stop offset="0.89" stop-color="#E9EDEF"/>
<stop offset="1" stop-color="white"/>
</linearGradient>
<linearGradient id="paint8_linear_646_21826" x1="133.907" y1="210.095" x2="136.481" y2="207.131" gradientUnits="userSpaceOnUse">
<stop stop-color="#687C83"/>
<stop offset="0.13" stop-color="#7B8D94"/>
<stop offset="0.39" stop-color="#ACBAC1"/>
<stop offset="0.49" stop-color="#C3CFD5"/>
<stop offset="0.62" stop-color="#C7D2D8"/>
<stop offset="0.76" stop-color="#D4DCE1"/>
<stop offset="0.89" stop-color="#E9EDEF"/>
<stop offset="1" stop-color="white"/>
</linearGradient>
<linearGradient id="paint9_linear_646_21826" x1="59.7602" y1="211.471" x2="64.4246" y2="206.096" gradientUnits="userSpaceOnUse">
<stop stop-color="#687C83"/>
<stop offset="0.13" stop-color="#7B8D94"/>
<stop offset="0.39" stop-color="#ACBAC1"/>
<stop offset="0.49" stop-color="#C3CFD5"/>
<stop offset="0.62" stop-color="#C7D2D8"/>
<stop offset="0.76" stop-color="#D4DCE1"/>
<stop offset="0.89" stop-color="#E9EDEF"/>
<stop offset="1" stop-color="white"/>
</linearGradient>
<linearGradient id="paint10_linear_646_21826" x1="77.7972" y1="216.563" x2="110.627" y2="178.735" gradientUnits="userSpaceOnUse">
<stop stop-color="#001110"/>
<stop offset="0.06" stop-color="#122323"/>
<stop offset="0.18" stop-color="#425355"/>
<stop offset="0.35" stop-color="#8F9EA4"/>
<stop offset="0.43" stop-color="#B5C4CC"/>
<stop offset="0.66" stop-color="#C1CDD3"/>
<stop offset="1" stop-color="#DBE0E2"/>
</linearGradient>
<linearGradient id="paint11_linear_646_21826" x1="83.2073" y1="6.16506" x2="83.2073" y2="189.509" gradientUnits="userSpaceOnUse">
<stop stop-color="#687C83"/>
<stop offset="0.13" stop-color="#7B8D94"/>
<stop offset="0.39" stop-color="#ACBAC1"/>
<stop offset="0.49" stop-color="#C3CFD5"/>
<stop offset="0.66" stop-color="#C7CFD7"/>
<stop offset="0.83" stop-color="#D4D0DD"/>
<stop offset="1" stop-color="#E7D1E7"/>
</linearGradient>
<linearGradient id="paint12_linear_646_21826" x1="95.4941" y1="186.488" x2="95.4941" y2="189.526" gradientUnits="userSpaceOnUse">
<stop stop-color="#C3CFD5"/>
<stop offset="0.53" stop-color="#E5EAED"/>
<stop offset="1" stop-color="white"/>
</linearGradient>
<linearGradient id="paint13_linear_646_21826" x1="53.5802" y1="1.66189" x2="53.5802" y2="52.6443" gradientUnits="userSpaceOnUse">
<stop stop-color="white"/>
<stop offset="0.16" stop-color="#FCFCFC"/>
<stop offset="0.31" stop-color="#F1F3F4"/>
<stop offset="0.44" stop-color="#DFE4E6"/>
<stop offset="0.57" stop-color="#C6CFD2"/>
<stop offset="0.7" stop-color="#A6B4B8"/>
<stop offset="0.74" stop-color="#8E9FA4"/>
<stop offset="0.76" stop-color="#6F8389"/>
<stop offset="0.78" stop-color="#536B71"/>
<stop offset="0.8" stop-color="#3D575E"/>
<stop offset="0.82" stop-color="#2C484F"/>
<stop offset="0.85" stop-color="#213E45"/>
<stop offset="0.89" stop-color="#1A383F"/>
<stop offset="1" stop-color="#18363D"/>
</linearGradient>
<linearGradient id="paint14_linear_646_21826" x1="128.515" y1="54.8606" x2="128.515" y2="97.6587" gradientUnits="userSpaceOnUse">
<stop stop-color="#F5F7F8"/>
<stop offset="0.33" stop-color="#C5CED1"/>
<stop offset="0.59" stop-color="#A5B3B8"/>
<stop offset="0.74" stop-color="#99A9AE"/>
<stop offset="0.78" stop-color="#94A5AA"/>
<stop offset="0.83" stop-color="#86989D"/>
<stop offset="0.88" stop-color="#6E8288"/>
<stop offset="0.93" stop-color="#4C646B"/>
<stop offset="0.99" stop-color="#223F45"/>
<stop offset="1" stop-color="#18363D"/>
</linearGradient>
<linearGradient id="paint15_linear_646_21826" x1="153.945" y1="97.2473" x2="153.945" y2="150.446" gradientUnits="userSpaceOnUse">
<stop stop-color="#F5F7F8"/>
<stop offset="0.17" stop-color="#F2F4F5"/>
<stop offset="0.32" stop-color="#E7EBED"/>
<stop offset="0.46" stop-color="#D5DCDE"/>
<stop offset="0.6" stop-color="#BCC7CA"/>
<stop offset="0.73" stop-color="#9CABB0"/>
<stop offset="0.74" stop-color="#99A9AE"/>
<stop offset="0.77" stop-color="#889A9F"/>
<stop offset="0.88" stop-color="#4C646A"/>
<stop offset="0.96" stop-color="#26434A"/>
<stop offset="1" stop-color="#18363D"/>
</linearGradient>
<linearGradient id="paint16_linear_646_21826" x1="141.712" y1="129.467" x2="141.712" y2="188.58" gradientUnits="userSpaceOnUse">
<stop stop-color="white"/>
<stop offset="0.47" stop-color="#E5EAED"/>
<stop offset="1" stop-color="#C3CFD5"/>
</linearGradient>
<linearGradient id="paint17_linear_646_21826" x1="87.9933" y1="13.3122" x2="87.9933" y2="97.0141" gradientUnits="userSpaceOnUse">
<stop stop-color="white"/>
<stop offset="0.31" stop-color="#FCFDFD"/>
<stop offset="0.54" stop-color="#F2F5F6"/>
<stop offset="0.75" stop-color="#E2E8EB"/>
<stop offset="0.94" stop-color="#CCD6DB"/>
<stop offset="1" stop-color="#C3CFD5"/>
</linearGradient>
<linearGradient id="paint18_linear_646_21826" x1="37.8648" y1="5.7898" x2="37.8648" y2="183.522" gradientUnits="userSpaceOnUse">
<stop stop-color="white"/>
<stop offset="0.47" stop-color="#E5EAED"/>
<stop offset="1" stop-color="#C3CFD5"/>
</linearGradient>
<linearGradient id="paint19_linear_646_21826" x1="36.9719" y1="5.87914" x2="36.9719" y2="186.614" gradientUnits="userSpaceOnUse">
<stop stop-color="#AEBEC5"/>
<stop offset="0.01" stop-color="#C4D0D5"/>
<stop offset="0.02" stop-color="#DAE1E4"/>
<stop offset="0.03" stop-color="#EBEFF0"/>
<stop offset="0.05" stop-color="#F6F8F9"/>
<stop offset="0.08" stop-color="#FDFDFE"/>
<stop offset="0.14" stop-color="white"/>
<stop offset="0.23" stop-color="#F9FAFA"/>
<stop offset="0.34" stop-color="#E9ECEE"/>
<stop offset="0.47" stop-color="#CED6D8"/>
<stop offset="0.6" stop-color="#A9B6BB"/>
<stop offset="0.66" stop-color="#99A9AE"/>
<stop offset="0.72" stop-color="#86989D"/>
<stop offset="0.85" stop-color="#556C73"/>
<stop offset="1" stop-color="#18363D"/>
</linearGradient>
</defs>
</svg>
