<svg width="40" height="40" viewBox="0 0 40 40" fill="none" xmlns="http://www.w3.org/2000/svg">
<path d="M19.9997 36.6668C29.2044 36.6668 36.6663 29.2049 36.6663 20.0002C36.6663 10.7954 29.2044 3.3335 19.9997 3.3335C10.7949 3.3335 3.33301 10.7954 3.33301 20.0002C3.33301 29.2049 10.7949 36.6668 19.9997 36.6668Z" fill="#E6E6E6"/>
<path d="M26.1833 23.8165C26.8333 24.4665 26.8333 25.5165 26.1833 26.1665C25.8499 26.4999 25.4333 26.6499 24.9999 26.6499C24.5666 26.6499 24.1499 26.4832 23.8166 26.1665L19.9999 22.3499L16.1833 26.1665C15.8499 26.4999 15.4333 26.6499 14.9999 26.6499C14.5666 26.6499 14.1499 26.4832 13.8166 26.1665C13.1666 25.5165 13.1666 24.4665 13.8166 23.8165L17.6333 19.9999L13.8166 16.1832C13.1666 15.5332 13.1666 14.4832 13.8166 13.8332C14.4666 13.1832 15.5166 13.1832 16.1666 13.8332L19.9833 17.6499L23.7999 13.8332C24.4499 13.1832 25.4999 13.1832 26.1499 13.8332C26.7999 14.4832 26.7999 15.5332 26.1499 16.1832L22.3333 19.9999L26.1499 23.8165H26.1833Z" fill="#012B7F"/>
</svg>
