<svg width="36" height="36" viewBox="0 0 36 36" fill="none" xmlns="http://www.w3.org/2000/svg">
<path d="M19.5 27H7.5C6.6 27 6 26.4 6 25.5C6 24.6 6.6 24 7.5 24H19.5C20.4 24 21 24.6 21 25.5C21 26.4 20.4 27 19.5 27Z" fill="white"/>
<path d="M28.5 19.5H7.5C6.6 19.5 6 18.9 6 18C6 17.1 6.6 16.5 7.5 16.5H28.5C29.4 16.5 30 17.1 30 18C30 18.9 29.4 19.5 28.5 19.5Z" fill="white"/>
<path d="M28.5 12H16.5C15.6 12 15 11.4 15 10.5C15 9.6 15.6 9 16.5 9H28.5C29.4 9 30 9.6 30 10.5C30 11.4 29.4 12 28.5 12Z" fill="white"/>
</svg>
