<svg width="48" height="48" viewBox="0 0 48 48" fill="none" xmlns="http://www.w3.org/2000/svg">
<g id="Frame">
<rect x="0.428571" y="0.428571" width="47.1429" height="47.1429" rx="23.5714" stroke="#FBE046" stroke-width="0.857143"/>
<path id="Vector" d="M33 28.42V31.9561C33 32.4811 32.5941 32.9167 32.0705 32.9537C31.6331 32.9846 31.2763 33 31 33C22.1634 33 15 25.8366 15 17C15 16.7237 15.0155 16.3669 15.0464 15.9295C15.0834 15.4059 15.5189 15 16.0439 15H19.5801C19.8368 15 20.0518 15.1944 20.0775 15.4498C20.1007 15.6791 20.1222 15.8631 20.1421 16.002C20.3443 17.4147 20.7575 18.7594 21.3487 20.003C21.4436 20.2026 21.3817 20.4416 21.2018 20.5701L19.0436 22.1118C20.3575 25.1811 22.8189 27.6425 25.8882 28.9565L27.4271 26.8019C27.5572 26.6199 27.799 26.5573 28.001 26.6532C29.2446 27.2439 30.5891 27.6566 32.0016 27.8584C32.1396 27.8782 32.3225 27.8995 32.5502 27.9225C32.8056 27.9483 33 28.1633 33 28.42Z" fill="#FBE046"/>
</g>
</svg>
