<svg width="87" height="88" viewBox="0 0 87 88" fill="none" xmlns="http://www.w3.org/2000/svg">
<g id="Play Button">
<path id="Vector" fill-rule="evenodd" clip-rule="evenodd" d="M7.24927 44.0073C7.24927 23.9969 23.4709 7.77539 43.4812 7.77539C53.0904 7.77539 62.3062 11.5927 69.101 18.3874C75.8957 25.1823 79.713 34.398 79.713 44.0073C79.713 64.0176 63.4915 80.2392 43.4812 80.2392C23.4709 80.2392 7.24927 64.0176 7.24927 44.0073ZM36.8509 59.5146L57.974 46.3262C58.7645 45.8199 59.2426 44.946 59.2426 44.0073C59.2426 43.0687 58.7645 42.1946 57.974 41.6885L36.7783 28.5001C35.9436 27.9737 34.8889 27.9414 34.0234 28.4154C33.158 28.8896 32.6175 29.7957 32.6118 30.7827V57.232C32.6001 58.2429 33.1505 59.1767 34.0406 59.6559C34.9306 60.1353 36.0133 60.0808 36.8509 59.5146Z" fill="white"/>
</g>
</svg>
