<svg width="23" height="22" viewBox="0 0 23 22" fill="none" xmlns="http://www.w3.org/2000/svg">
<g clip-path="url(#clip0_482_1667)">
<path d="M11.3432 10.5975C12.7991 10.5975 14.0598 10.0753 15.0899 9.04505C16.12 8.01498 16.6422 6.75463 16.6422 5.29856C16.6422 3.843 16.12 2.58248 15.0897 1.55207C14.0595 0.522169 12.799 0 11.3432 0C9.88716 0 8.6268 0.522169 7.59673 1.55224C6.56665 2.58231 6.04431 3.84283 6.04431 5.29856C6.04431 6.75463 6.56665 8.01515 7.59689 9.04522C8.62714 10.0751 9.88766 10.5975 11.3432 10.5975Z" fill="white"/>
<path d="M20.6149 16.917C20.5852 16.4883 20.5251 16.0207 20.4367 15.5269C20.3474 15.0294 20.2324 14.5591 20.0948 14.1292C19.9526 13.6849 19.7592 13.2462 19.5202 12.8257C19.2721 12.3893 18.9808 12.0093 18.6538 11.6966C18.3119 11.3695 17.8933 11.1065 17.4092 10.9146C16.9268 10.7238 16.3922 10.6271 15.8204 10.6271C15.5958 10.6271 15.3786 10.7193 14.9592 10.9924C14.701 11.1607 14.399 11.3554 14.062 11.5708C13.7738 11.7544 13.3834 11.9264 12.9012 12.0822C12.4307 12.2344 11.953 12.3116 11.4815 12.3116C11.0101 12.3116 10.5325 12.2344 10.0616 12.0822C9.57983 11.9266 9.18942 11.7545 8.90157 11.5709C8.56772 11.3576 8.26559 11.1629 8.00359 10.9922C7.58464 10.7191 7.36728 10.627 7.1427 10.627C6.57068 10.627 6.03625 10.7238 5.55403 10.9148C5.0703 11.1063 4.65152 11.3693 4.30928 11.6968C3.98248 12.0097 3.69093 12.3895 3.44319 12.8257C3.20435 13.2462 3.01099 13.6848 2.86865 14.1294C2.73119 14.5592 2.61621 15.0294 2.52692 15.5269C2.43846 16.02 2.37837 16.4878 2.34866 16.9175C2.31946 17.3384 2.30469 17.7753 2.30469 18.2166C2.30469 19.365 2.66975 20.2947 3.38965 20.9804C4.10065 21.657 5.04143 22.0002 6.18547 22.0002H16.7786C17.9227 22.0002 18.8631 21.6571 19.5743 20.9804C20.2943 20.2952 20.6594 19.3654 20.6594 18.2164C20.6592 17.7732 20.6443 17.3359 20.6149 16.917Z" fill="white"/>
</g>
<defs>
<clipPath id="clip0_482_1667">
<rect width="22" height="22" fill="white" transform="translate(0.5)"/>
</clipPath>
</defs>
</svg>
